<?xml version="1.0" encoding="utf-8"?>
<!-- Generator: Adobe Illustrator 23.0.2, SVG Export Plug-In . SVG Version: 6.00 Build 0)  -->
<svg version="1.1" id="Capa_1" xmlns="http://www.w3.org/2000/svg" xmlns:xlink="http://www.w3.org/1999/xlink" x="0px" y="0px"
	 viewBox="0 0 400 400" style="enable-background:new 0 0 400 400;" xml:space="preserve">
<style type="text/css">
	.st0{fill:none;
			-webkit-animation: logo1 5s forwards 5s;
			-moz-animation: logo1 5s forwards 5s;
			-o-animation: logo1 5s forwards 5s;
			animation: logo1 5s forwards 5s;
	}

	.st1{fill:none;
	stroke:#FFFFFF;
	stroke-dasharray: 1400;
	stroke-dashoffset: 0;
	stroke-miterlimit:10;
		-webkit-animation: animacion 8s forwards;
		-moz-animation: animacion 8s forwards;
		-o-animation: animacion 8s forwards;
		animation: animacion 8s forwards;
	}
	@-webkit-keyframes animacion {
			0% {
				stroke-dashoffset: 1400;
			}
			90% {
				stroke: #e0641a;
			}

			100% {
				stroke-dashoffset: 0;
				stroke: transparent;
			}
		}

		@-keyframes animacion {
			0% {
				stroke-dashoffset: 1400;
			}
			90% {
				stroke: #e0641a;
			}

			100% {
				stroke-dashoffset: 0;
				stroke: transparent;
			}
		}
		@-webkit-keyframes logo1 {
			from {
				fill: transparent;
			}

			to {
				fill: #e0641a;
			}
		}

		@-keyframes logo1 {
			from {
				fill: transparent;
			}

			to {
				fill: #e0641a;
			}
		}
</style>
<path id="icono" class="st0" d="M194.4,298.7c-34.6,0-69.2,0-103.8,0c-8.2,0-12.5-4.2-12.5-12.5c0-56.3,0-112.5,0-168.8
	c0-8.9,3.9-15.4,11.6-19.6c31.4-16.9,62.7-33.8,94.1-50.7c7.4-4,14.7-3.9,22.1,0.1c31,16.8,62,33.5,93,50.3
	c8.2,4.4,12.2,11.2,12.2,20.5c0,56,0,111.9,0,167.9c0,8.4-4.3,12.7-12.6,12.7C263.8,298.7,229.1,298.7,194.4,298.7z M135.4,175.8
	c-22-13.1-22.2-39.4-9.1-53.6c13.3-14.4,36.4-14.8,49.9-0.6c6.9,7.3,10.2,16,9.5,26c-0.9,12.3-7.1,21.5-17.6,27.9
	c6.5,8.4,10.5,17.8,13.6,27.7c7.6,23.8,10.3,48.4,11.1,73.2c0.1,3.1,0,6.2,0,9.2c2.8,0,5.1,0,7.1,0c1.6-9.3,2.8-18.3,4.8-27.2
	c3.9-16.9,9.1-33.3,22.1-45.9c-0.2-0.2-0.4-0.4-0.7-0.5c-12.5-7.2-18.1-17.9-16.3-32.4c0.1-1.1-0.4-2.5-1-3.4
	c-1.9-2.8-4-5.3-5.9-8.1c-1.9-2.8-0.9-4.9,2.4-5.3c3.5-0.4,7-0.7,10.5-1.3c2.2-0.4,4.7-0.8,6.6-2c11.2-7.4,24.1-7.4,35.3,0
	c1,0.7,2.2,1.2,3.5,1.4c4.9,0.7,9.9,1.2,14.9,1.8c3.4,0.4,4.4,2.5,2.4,5.3c-2,2.9-4.1,5.8-6.3,8.5c-1.4,1.6-1.8,3.2-1.6,5.4
	c0.8,8.7-1.6,16.6-7.6,23c-2.7,2.9-6,5.2-9.1,7.8c6.6,5.7,10.9,13.3,14.4,21.5c6.6,15.6,9.9,31.9,11.6,48.7c0.2,2.1,0.7,3.2,3.1,3
	c2.2-0.2,4.5,0,6.8,0c5.7,0,8.4-2.7,8.4-8.5c0-53.2,0-106.5,0-159.7c0-4-1.5-6.6-5-8.5c-29.8-16-59.4-32.1-89.1-48.2
	c-6.3-3.4-12.4-3.4-18.7,0c-27.8,15-55.6,30-83.6,44.9c-7.5,4-11.1,10-11,18.5c0.1,50.6,0,101.2,0.1,151.8c0,1.3,0,2.6,0.2,3.8
	c0.5,3,2.4,5.3,5.3,5.5c4.7,0.4,9.5,0.1,14.7,0.1c0-3.4-0.1-6.5,0-9.6c0.6-21.7,3-43.2,8.5-64.2C122.9,199,127.3,186.5,135.4,175.8z
	 M175.8,285.7c0.2-0.4,0.3-0.6,0.3-0.8c0-2.1-0.1-4.3-0.1-6.5c-0.4-20.7-2.6-41.2-7.8-61.3c-2.6-10.2-5.6-20.3-11.9-28.9
	c-4.2-5.8-4.3-5.9-8.8,0.1c-4.9,6.6-7.6,14.3-9.9,22.1c-5.9,19.5-8.4,39.6-9.4,59.9c-0.2,5,0,10.1,0,15.3
	C143.9,285.7,159.8,285.7,175.8,285.7z M263,285.7c-0.4-12.9-5.6-35.4-11.2-46.6c-2.2-4.4-5-8.6-8.1-12.5c-2.4-3.1-4.1-3-6.5-0.2
	c-2.7,3.2-5.2,6.6-7.1,10.3c-5.7,10.9-8.5,22.7-10.6,34.7c-0.8,4.7-1.4,9.4-2.1,14.3C232.9,285.7,247.8,285.7,263,285.7z
	 M168.8,145.4c0-9.5-7.7-17.3-17.1-17.3c-9.6-0.1-17.4,7.8-17.4,17.3c0,9.4,7.9,17.3,17.2,17.3C160.9,162.6,168.8,154.8,168.8,145.4
	z M225.3,184.7c0,8.1,6.7,14.8,14.7,14.8c8.2,0.1,15-6.7,15-14.9c0-8.2-6.8-14.9-15.1-14.8C231.8,169.9,225.2,176.6,225.3,184.7z
	 M263.8,175.6c1.7-2.3,3.1-4.2,4.8-6.5c-2.9-0.3-5.2-0.6-7.9-0.9C261.7,170.7,262.7,172.9,263.8,175.6z M220.8,168.3
	c-2.8,0.3-5.2,0.6-8,0.9c1.7,2.2,3,4.1,4.7,6.3C218.7,173,219.7,170.8,220.8,168.3z M244,187.3c-2.1,2.5-4.9,2.5-7.2,0.1
	C238.7,185,241.6,184.9,244,187.3z"/>
<path id="texto" class="st0" d="M65.6,315.9l-2.4,38.6l-12,0.5l0.1-20.4l-5.4,16.4h-4.6l-4.2-14.7l0,17l-12.1,0.4l0.5-36.3L39,317
	l5.4,17.4l7.2-18.5L65.6,315.9L65.6,315.9z M100.3,352l-13,1.7l-1.6-5.9h-6l-1.3,5.9l-13.4-1.3l10.5-35l14.6-0.7L100.3,352z
	 M84.7,339.7l-2-9.1l-1.9,9.1H84.7z M127.7,340.2c0,2.4-0.4,4.5-1.2,6.3s-2,3.3-3.4,4.5s-3.1,2.1-5.1,2.7c-1.9,0.6-4,0.9-6.2,0.9
	c-0.9,0-1.8-0.1-2.8-0.3s-2.1-0.5-3.1-0.9c-1.1-0.3-2.1-0.7-3-1.1c-1-0.4-1.8-0.8-2.6-1.1l1.2-10.8c1.5,0.9,3.1,1.6,5,2
	c1.8,0.5,3.6,0.7,5.3,0.7c0.3,0,0.7,0,1.2,0s0.9-0.1,1.3-0.2s0.8-0.3,1.1-0.6c0.3-0.3,0.4-0.6,0.4-1.1c0-0.3-0.1-0.6-0.3-0.9
	c-0.2-0.2-0.5-0.4-0.8-0.6c-0.3-0.1-0.7-0.3-1.1-0.3s-0.8-0.1-1.2-0.2c-0.4,0-0.8,0-1.1,0s-0.6,0-0.8,0c-1.5,0-2.9-0.3-4.1-0.8
	s-2.3-1.3-3.2-2.2c-0.9-0.9-1.6-2-2.1-3.3s-0.7-2.7-0.7-4.2c0-2.1,0.4-3.9,1.2-5.6c0.8-1.6,1.9-3,3.3-4.2s3-2,4.8-2.6
	c1.8-0.6,3.7-0.9,5.6-0.9c0.9,0,1.7,0,2.7,0.1c0.9,0.1,1.8,0.2,2.7,0.3c0.9,0.2,1.8,0.4,2.6,0.6c0.9,0.2,1.7,0.5,2.4,0.9l-1,10.7
	c-1.2-0.4-2.4-0.7-3.8-1c-1.3-0.3-2.6-0.4-3.8-0.4c-0.2,0-0.5,0-0.9,0s-0.7,0-1.1,0.1c-0.4,0-0.8,0.1-1.2,0.2
	c-0.4,0.1-0.8,0.2-1.1,0.4s-0.6,0.4-0.8,0.6c-0.2,0.2-0.3,0.5-0.3,0.9c0,0.4,0.2,0.7,0.4,0.9c0.3,0.2,0.6,0.4,1.1,0.5
	c0.4,0.1,0.9,0.2,1.4,0.3c0.5,0,1,0.1,1.5,0.1s1,0,1.4,0c0.4,0,0.8,0,1.1,0c1.4,0.1,2.7,0.4,3.8,0.9c1.1,0.5,2.1,1.2,2.8,2
	s1.4,1.8,1.8,3C127.5,337.6,127.7,338.9,127.7,340.2z M155.4,317.3l-1.5,11.1c-0.5-0.1-1-0.2-1.5-0.3c-0.5,0-1-0.1-1.5-0.1
	c-1.3,0-2.5,0.2-3.7,0.5c-1.2,0.3-2.2,0.9-3.1,1.6c-0.9,0.7-1.6,1.6-2.2,2.6c-0.5,1-0.8,2.3-0.8,3.7c0,0.9,0.1,1.7,0.4,2.4
	c0.3,0.7,0.7,1.2,1.2,1.7c0.5,0.4,1.1,0.8,1.9,1s1.5,0.3,2.4,0.3c0.6,0,1.3-0.1,2-0.2c0.7-0.1,1.4-0.3,2.1-0.5
	c0.7-0.2,1.4-0.5,2-0.8c0.6-0.3,1.2-0.6,1.8-0.9l-1.1,12.4c-0.7,0.4-1.4,0.7-2.2,0.9s-1.6,0.5-2.5,0.7s-1.7,0.4-2.5,0.5
	c-0.8,0.1-1.6,0.2-2.4,0.2c-2.2,0-4.3-0.4-6.2-1.2c-1.9-0.8-3.6-2-5-3.4s-2.5-3.1-3.4-5.1c-0.8-2-1.2-4.1-1.2-6.3
	c0-3,0.4-5.8,1.3-8.5s2.1-5,3.8-7s3.7-3.6,6.2-4.7c2.5-1.2,5.3-1.7,8.5-1.7c1.2,0,2.4,0.1,3.7,0.3
	C153.2,316.4,154.4,316.7,155.4,317.3z M189.3,335.7c0,1.6-0.2,3.1-0.6,4.6c-0.4,1.5-0.9,2.9-1.6,4.2c-0.7,1.3-1.5,2.5-2.5,3.6
	s-2.1,2-3.3,2.8c-1.2,0.8-2.6,1.4-4,1.8c-1.5,0.4-3,0.6-4.6,0.6c-1.6,0-3.1-0.2-4.5-0.6s-2.8-1-4-1.7c-1.2-0.7-2.4-1.6-3.4-2.6
	c-1-1-1.9-2.2-2.6-3.4c-0.7-1.2-1.3-2.6-1.7-4c-0.4-1.4-0.6-2.9-0.6-4.5c0-1.5,0.2-3,0.6-4.5c0.4-1.5,0.9-2.8,1.6-4.1
	c0.7-1.3,1.5-2.5,2.5-3.6s2.1-2,3.3-2.5s2.5-1.4,4-1.8c1.4-0.4,2.9-0.7,4.5-0.7c2.5,0,4.9,0.4,6.9,1.2c2.1,0.8,3.9,1.9,5.4,3.4
	s2.6,3.2,3.4,5.3C188.9,330.8,189.3,333.1,189.3,335.7z M177.6,336.4c0-0.8-0.1-1.5-0.3-2.2c-0.2-0.7-0.5-1.3-1-1.9
	c-0.4-0.5-0.9-1-1.6-1.3s-1.3-0.5-2.1-0.5c-0.8,0-1.6,0.1-2.2,0.5c-0.6,0.3-1.2,0.7-1.7,1.2c-0.5,0.5-0.8,1.1-1.1,1.8
	c-0.2,0.7-0.4,1.4-0.4,2.2c0,0.7,0.1,1.5,0.3,2.2s0.5,1.4,0.9,2s0.9,1.1,1.6,1.5c0.6,0.4,1.4,0.5,2.2,0.5c0.8,0,1.6-0.2,2.2-0.5
	c0.7-0.3,1.2-0.8,1.7-1.3c0.5-0.5,0.8-1.2,1.1-1.9C177.5,337.9,177.6,337.1,177.6,336.4z M221.8,328.9c0,1.7-0.3,3.2-0.8,4.5
	c-0.5,1.3-1.2,2.5-2.1,3.4c-0.9,1-1.9,1.8-3.1,2.5c-1.2,0.7-2.5,1.2-3.8,1.7c-1.4,0.4-2.8,0.8-4.2,1s-2.9,0.3-4.3,0.3v12.2h-12.2
	c0-4,0-8,0-12c0-4,0-8,0.1-12c0-2.1,0-4.3,0-6.4c0-2.1,0-4.3,0.1-6.5c2.2-0.7,4.5-1.2,6.7-1.5c2.2-0.3,4.6-0.5,6.9-0.5
	c1.4,0,2.7,0.1,4.1,0.3s2.6,0.6,3.9,1s2.4,1.1,3.4,1.5s2,1.6,2.8,2.5s1.4,2.1,1.8,3.4C221.5,326,221.8,327.4,221.8,328.9z
	 M210.1,329.8c0-1.1-0.4-2-1-2.7c-0.7-0.6-1.6-1-2.7-1c-0.4,0-0.8,0-1.1,0.1s-0.8,0.1-1.1,0.2l-0.3,7.7c0.2,0,0.5,0,0.7,0
	c0.2,0,0.5,0,0.7,0c0.6,0,1.2-0.1,1.8-0.3c0.6-0.2,1.1-0.5,1.6-0.9c0.5-0.4,0.8-0.9,1.1-1.4C209.9,331.1,210.1,330.5,210.1,329.8z
	 M248.1,316.3c-0.1,1.6-0.2,3.3-0.3,4.9s-0.2,3.2-0.3,4.9l-11.1,0.6l-0.3,3.3h7.8l-0.6,8.1l-7.9,0.3l-0.3,3.8h6.5h4.6
	c-0.1,1.9-0.2,3.8-0.3,5.8c-0.1,1.9-0.2,3.8-0.3,5.7l-22.7,0.5l0.8-37.9H248.1z M279.8,328.9c0,1.4-0.1,2.6-0.4,3.7
	c-0.2,1.1-0.6,2.1-1.1,3.1s-1.2,1.8-2,2.6c-0.8,0.8-1.8,1.5-2.9,2.3l6.3,11.1l-11.8,2.3l-4-11.2l-3.3,0.1l-0.5,10.9h-11.3
	c0.1-4,0.2-8,0.2-11.9s0.2-7.9,0.3-11.9c0-2,0.1-4,0.1-6c0-2,0.1-4,0.2-6c1.2-0.5,2.4-0.8,3.6-1.1c1.2-0.3,2.4-0.5,3.6-0.7
	c1.2-0.2,2.4-0.3,3.6-0.3c1.2-0.1,2.5-0.1,3.8-0.1c2,0,3.9,0.3,5.8,0.5s3.5,1.4,5,2.5s2.6,2.5,3.5,4.1
	C279.4,324.8,279.8,326.7,279.8,328.9z M268,329.7c0-0.7-0.1-1.4-0.3-2c-0.2-0.6-0.5-1.1-0.9-1.6c-0.4-0.5-0.9-0.8-1.5-1
	c-0.6-0.2-1.3-0.4-2.1-0.4c-0.4,0-0.7,0-1,0.1c-0.3,0-0.7,0.1-1,0.2l-0.4,9.8h0.6c0.8,0,1.5-0.1,2.3-0.3s1.5-0.5,2.1-0.9
	c0.6-0.4,1.1-0.9,1.5-1.5C267.8,331.4,268,330.6,268,329.7z M312.5,328.9c0,1.4-0.1,2.6-0.4,3.7c-0.2,1.1-0.6,2.1-1.1,3.1
	s-1.2,1.8-2,2.6c-0.8,0.8-1.8,1.5-2.9,2.3l6.3,11.1l-11.8,2.3l-4-11.2l-3.3,0.1l-0.5,10.9h-11.3c0.1-4,0.2-8,0.2-11.9
	s0.2-7.9,0.3-11.9c0-2,0.1-4,0.1-6c0-2,0.1-4,0.2-6c1.2-0.5,2.4-0.8,3.6-1.1c1.2-0.3,2.4-0.5,3.6-0.7c1.2-0.2,2.4-0.3,3.6-0.3
	c1.2-0.1,2.5-0.1,3.8-0.1c2,0,3.9,0.3,5.8,0.5s3.5,1.4,5,2.5s2.6,2.5,3.5,4.1C312,324.8,312.5,326.7,312.5,328.9z M300.7,329.7
	c0-0.7-0.1-1.4-0.3-2c-0.2-0.6-0.5-1.1-0.9-1.6c-0.4-0.5-0.9-0.8-1.5-1c-0.6-0.2-1.3-0.4-2.1-0.4c-0.4,0-0.7,0-1,0.1
	c-0.3,0-0.7,0.1-1,0.2l-0.4,9.8h0.6c0.8,0,1.5-0.1,2.3-0.3s1.5-0.5,2.1-0.9s1.1-0.9,1.5-1.5C300.5,331.4,300.7,330.6,300.7,329.7z
	 M346.4,335.7c0,1.6-0.2,3.1-0.5,4.6c-0.4,1.5-0.9,2.9-1.6,4.2c-0.7,1.3-1.5,2.5-2.5,3.6s-2.1,2-3.3,2.5s-2.6,1.4-4,1.8
	c-1.5,0.4-3,0.6-4.6,0.6c-1.6,0-3.1-0.2-4.5-0.6c-1.4-0.4-2.8-1-4-1.7c-1.2-0.7-2.4-1.6-3.4-2.6s-1.9-2.2-2.6-3.4
	c-0.7-1.2-1.3-2.6-1.7-4c-0.4-1.4-0.6-2.9-0.6-4.5c0-1.5,0.2-3,0.5-4.5c0.4-1.5,0.9-2.8,1.6-4.1c0.7-1.3,1.5-2.5,2.5-3.6
	s2.1-2,3.3-2.5s2.5-1.4,4-1.8c1.4-0.4,2.9-0.7,4.5-0.7c2.5,0,4.9,0.4,7,1.2c2.1,0.8,3.9,1.9,5.4,3.4c1.5,1.5,2.6,3.2,3.4,5.3
	C346,330.8,346.4,333.1,346.4,335.7z M334.8,336.4c0-0.8-0.1-1.5-0.3-2.2c-0.2-0.7-0.5-1.3-1-1.9s-0.9-1-1.6-1.3s-1.3-0.5-2.1-0.5
	c-0.8,0-1.6,0.1-2.2,0.5c-0.6,0.3-1.2,0.7-1.7,1.2s-0.8,1.1-1.1,1.8c-0.2,0.7-0.4,1.4-0.4,2.2c0,0.7,0.1,1.5,0.3,2.2
	c0.2,0.7,0.5,1.4,1,2s0.9,1.1,1.6,1.5c0.6,0.4,1.4,0.5,2.2,0.5s1.6-0.2,2.2-0.5c0.7-0.3,1.2-0.8,1.7-1.3c0.5-0.5,0.8-1.2,1-1.9
	C334.6,337.9,334.8,337.1,334.8,336.4z M374.9,340.2c0,2.4-0.4,4.5-1.2,6.3s-2,3.3-3.4,4.5s-3.1,2.1-5.1,2.7c-1.9,0.6-4,0.9-6.2,0.9
	c-0.9,0-1.8-0.1-2.8-0.3s-2.1-0.5-3.1-0.9c-1-0.3-2.1-0.7-3-1.1c-1-0.4-1.8-0.8-2.6-1.1l1.2-10.8c1.5,0.9,3.1,1.6,5,2
	s3.6,0.7,5.4,0.7c0.3,0,0.7,0,1.2,0s0.9-0.1,1.4-0.2s0.8-0.3,1.1-0.6s0.5-0.6,0.5-1.1c0-0.3-0.1-0.6-0.3-0.9
	c-0.2-0.2-0.5-0.4-0.8-0.6c-0.3-0.1-0.7-0.3-1.1-0.3s-0.8-0.1-1.2-0.2c-0.4,0-0.8,0-1.1,0s-0.6,0-0.8,0c-1.5,0-2.9-0.3-4.1-0.8
	s-2.3-1.3-3.2-2.2c-0.9-0.9-1.6-2-2.1-3.3s-0.7-2.7-0.7-4.2c0-2.1,0.4-3.9,1.2-5.6c0.8-1.6,2-3,3.3-4.2c1.4-1.1,3-2,4.8-2.6
	c1.8-0.6,3.7-0.9,5.6-0.9c0.9,0,1.7,0,2.7,0.1c0.9,0.1,1.8,0.2,2.7,0.3c0.9,0.2,1.8,0.4,2.6,0.6c0.9,0.2,1.7,0.5,2.5,0.9l-1,10.7
	c-1.2-0.4-2.4-0.7-3.8-1c-1.3-0.3-2.6-0.4-3.8-0.4c-0.2,0-0.5,0-0.9,0c-0.4,0-0.7,0-1.1,0.1s-0.8,0.1-1.2,0.2
	c-0.4,0.1-0.8,0.2-1.1,0.4c-0.3,0.1-0.6,0.4-0.8,0.6c-0.2,0.2-0.3,0.5-0.3,0.9c0,0.4,0.2,0.7,0.4,0.9c0.3,0.2,0.6,0.4,1,0.5
	c0.4,0.1,0.9,0.2,1.4,0.3c0.5,0,1,0.1,1.5,0.1s1,0,1.4,0s0.8,0,1.1,0c1.4,0.1,2.7,0.4,3.8,0.9c1.1,0.5,2.1,1.2,2.9,2s1.4,1.8,1.8,3
	C374.7,337.6,374.9,338.9,374.9,340.2z"/>
<path id="contorno" class="st1" d="M194.4,298.7c-34.6,0-69.2,0-103.8,0c-8.2,0-12.5-4.2-12.5-12.5c0-56.3,0-112.5,0-168.8
	c0-8.9,3.9-15.4,11.6-19.6c31.4-16.9,62.7-33.8,94.1-50.7c7.4-4,14.7-3.9,22.1,0.1c31,16.8,62,33.5,93,50.3
	c8.2,4.4,12.2,11.2,12.2,20.5c0,56,0,111.9,0,167.9c0,8.4-4.3,12.7-12.6,12.7C263.8,298.7,229.1,298.7,194.4,298.7z M135.4,175.8
	c-22-13.1-22.2-39.4-9.1-53.6c13.3-14.4,36.4-14.8,49.9-0.6c6.9,7.3,10.2,16,9.5,26c-0.9,12.3-7.1,21.5-17.6,27.9
	c6.5,8.4,10.5,17.8,13.6,27.7c7.6,23.8,10.3,48.4,11.1,73.2c0.1,3.1,0,6.2,0,9.2c2.8,0,5.1,0,7.1,0c1.6-9.3,2.8-18.3,4.8-27.2
	c3.9-16.9,9.1-33.3,22.1-45.9c-0.2-0.2-0.4-0.4-0.7-0.5c-12.5-7.2-18.1-17.9-16.3-32.4c0.1-1.1-0.4-2.5-1-3.4
	c-1.9-2.8-4-5.3-5.9-8.1c-1.9-2.8-0.9-4.9,2.4-5.3c3.5-0.4,7-0.7,10.5-1.3c2.2-0.4,4.7-0.8,6.6-2c11.2-7.4,24.1-7.4,35.3,0
	c1,0.7,2.2,1.2,3.5,1.4c4.9,0.7,9.9,1.2,14.9,1.8c3.4,0.4,4.4,2.5,2.4,5.3c-2,2.9-4.1,5.8-6.3,8.5c-1.4,1.6-1.8,3.2-1.6,5.4
	c0.8,8.7-1.6,16.6-7.6,23c-2.7,2.9-6,5.2-9.1,7.8c6.6,5.7,10.9,13.3,14.4,21.5c6.6,15.6,9.9,31.9,11.6,48.7c0.2,2.1,0.7,3.2,3.1,3
	c2.2-0.2,4.5,0,6.8,0c5.7,0,8.4-2.7,8.4-8.5c0-53.2,0-106.5,0-159.7c0-4-1.5-6.6-5-8.5c-29.8-16-59.4-32.1-89.1-48.2
	c-6.3-3.4-12.4-3.4-18.7,0c-27.8,15-55.6,30-83.6,44.9c-7.5,4-11.1,10-11,18.5c0.1,50.6,0,101.2,0.1,151.8c0,1.3,0,2.6,0.2,3.8
	c0.5,3,2.4,5.3,5.3,5.5c4.7,0.4,9.5,0.1,14.7,0.1c0-3.4-0.1-6.5,0-9.6c0.6-21.7,3-43.2,8.5-64.2C122.9,199,127.3,186.5,135.4,175.8z
	 M175.8,285.7c0.2-0.4,0.3-0.6,0.3-0.8c0-2.1-0.1-4.3-0.1-6.5c-0.4-20.7-2.6-41.2-7.8-61.3c-2.6-10.2-5.6-20.3-11.9-28.9
	c-4.2-5.8-4.3-5.9-8.8,0.1c-4.9,6.6-7.6,14.3-9.9,22.1c-5.9,19.5-8.4,39.6-9.4,59.9c-0.2,5,0,10.1,0,15.3
	C143.9,285.7,159.8,285.7,175.8,285.7z M263,285.7c-0.4-12.9-5.6-35.4-11.2-46.6c-2.2-4.4-5-8.6-8.1-12.5c-2.4-3.1-4.1-3-6.5-0.2
	c-2.7,3.2-5.2,6.6-7.1,10.3c-5.7,10.9-8.5,22.7-10.6,34.7c-0.8,4.7-1.4,9.4-2.1,14.3C232.9,285.7,247.8,285.7,263,285.7z
	 M168.8,145.4c0-9.5-7.7-17.3-17.1-17.3c-9.6-0.1-17.4,7.8-17.4,17.3c0,9.4,7.9,17.3,17.2,17.3C160.9,162.6,168.8,154.8,168.8,145.4
	z M225.3,184.7c0,8.1,6.7,14.8,14.7,14.8c8.2,0.1,15-6.7,15-14.9c0-8.2-6.8-14.9-15.1-14.8C231.8,169.9,225.2,176.6,225.3,184.7z
	 M263.8,175.6c1.7-2.3,3.1-4.2,4.8-6.5c-2.9-0.3-5.2-0.6-7.9-0.9C261.7,170.7,262.7,172.9,263.8,175.6z M220.8,168.3
	c-2.8,0.3-5.2,0.6-8,0.9c1.7,2.2,3,4.1,4.7,6.3C218.7,173,219.7,170.8,220.8,168.3z M244,187.3c-2.1,2.5-4.9,2.5-7.2,0.1
	C238.7,185,241.6,184.9,244,187.3z M65.6,315.9l-2.4,38.6l-12,0.5l0.1-20.4l-5.4,16.4h-4.6l-4.2-14.7l0,17l-12.1,0.4l0.5-36.3
	L39,317l5.4,17.4l7.2-18.5L65.6,315.9L65.6,315.9z M100.3,352l-13,1.7l-1.6-5.9h-6l-1.3,5.9l-13.4-1.3l10.5-35l14.6-0.7L100.3,352z
	 M84.7,339.7l-2-9.1l-1.9,9.1H84.7z M127.7,340.2c0,2.4-0.4,4.5-1.2,6.3s-2,3.3-3.4,4.5s-3.1,2.1-5.1,2.7c-1.9,0.6-4,0.9-6.2,0.9
	c-0.9,0-1.8-0.1-2.8-0.3s-2.1-0.5-3.1-0.9c-1.1-0.3-2.1-0.7-3-1.1c-1-0.4-1.8-0.8-2.6-1.1l1.2-10.8c1.5,0.9,3.1,1.6,5,2
	c1.8,0.5,3.6,0.7,5.3,0.7c0.3,0,0.7,0,1.2,0s0.9-0.1,1.3-0.2s0.8-0.3,1.1-0.6c0.3-0.3,0.4-0.6,0.4-1.1c0-0.3-0.1-0.6-0.3-0.9
	c-0.2-0.2-0.5-0.4-0.8-0.6c-0.3-0.1-0.7-0.3-1.1-0.3s-0.8-0.1-1.2-0.2c-0.4,0-0.8,0-1.1,0s-0.6,0-0.8,0c-1.5,0-2.9-0.3-4.1-0.8
	s-2.3-1.3-3.2-2.2c-0.9-0.9-1.6-2-2.1-3.3s-0.7-2.7-0.7-4.2c0-2.1,0.4-3.9,1.2-5.6c0.8-1.6,1.9-3,3.3-4.2s3-2,4.8-2.6
	c1.8-0.6,3.7-0.9,5.6-0.9c0.9,0,1.7,0,2.7,0.1c0.9,0.1,1.8,0.2,2.7,0.3c0.9,0.2,1.8,0.4,2.6,0.6c0.9,0.2,1.7,0.5,2.4,0.9l-1,10.7
	c-1.2-0.4-2.4-0.7-3.8-1c-1.3-0.3-2.6-0.4-3.8-0.4c-0.2,0-0.5,0-0.9,0s-0.7,0-1.1,0.1c-0.4,0-0.8,0.1-1.2,0.2
	c-0.4,0.1-0.8,0.2-1.1,0.4s-0.6,0.4-0.8,0.6c-0.2,0.2-0.3,0.5-0.3,0.9c0,0.4,0.2,0.7,0.4,0.9c0.3,0.2,0.6,0.4,1.1,0.5
	c0.4,0.1,0.9,0.2,1.4,0.3c0.5,0,1,0.1,1.5,0.1s1,0,1.4,0c0.4,0,0.8,0,1.1,0c1.4,0.1,2.7,0.4,3.8,0.9c1.1,0.5,2.1,1.2,2.8,2
	s1.4,1.8,1.8,3C127.5,337.6,127.7,338.9,127.7,340.2z M155.4,317.3l-1.5,11.1c-0.5-0.1-1-0.2-1.5-0.3c-0.5,0-1-0.1-1.5-0.1
	c-1.3,0-2.5,0.2-3.7,0.5c-1.2,0.3-2.2,0.9-3.1,1.6c-0.9,0.7-1.6,1.6-2.2,2.6c-0.5,1-0.8,2.3-0.8,3.7c0,0.9,0.1,1.7,0.4,2.4
	c0.3,0.7,0.7,1.2,1.2,1.7c0.5,0.4,1.1,0.8,1.9,1s1.5,0.3,2.4,0.3c0.6,0,1.3-0.1,2-0.2c0.7-0.1,1.4-0.3,2.1-0.5
	c0.7-0.2,1.4-0.5,2-0.8c0.6-0.3,1.2-0.6,1.8-0.9l-1.1,12.4c-0.7,0.4-1.4,0.7-2.2,0.9s-1.6,0.5-2.5,0.7s-1.7,0.4-2.5,0.5
	c-0.8,0.1-1.6,0.2-2.4,0.2c-2.2,0-4.3-0.4-6.2-1.2c-1.9-0.8-3.6-2-5-3.4s-2.5-3.1-3.4-5.1c-0.8-2-1.2-4.1-1.2-6.3
	c0-3,0.4-5.8,1.3-8.5s2.1-5,3.8-7s3.7-3.6,6.2-4.7c2.5-1.2,5.3-1.7,8.5-1.7c1.2,0,2.4,0.1,3.7,0.3
	C153.2,316.4,154.4,316.7,155.4,317.3z M189.3,335.7c0,1.6-0.2,3.1-0.6,4.6c-0.4,1.5-0.9,2.9-1.6,4.2c-0.7,1.3-1.5,2.5-2.5,3.6
	s-2.1,2-3.3,2.8c-1.2,0.8-2.6,1.4-4,1.8c-1.5,0.4-3,0.6-4.6,0.6c-1.6,0-3.1-0.2-4.5-0.6s-2.8-1-4-1.7c-1.2-0.7-2.4-1.6-3.4-2.6
	c-1-1-1.9-2.2-2.6-3.4c-0.7-1.2-1.3-2.6-1.7-4c-0.4-1.4-0.6-2.9-0.6-4.5c0-1.5,0.2-3,0.6-4.5c0.4-1.5,0.9-2.8,1.6-4.1
	c0.7-1.3,1.5-2.5,2.5-3.6s2.1-2,3.3-2.5s2.5-1.4,4-1.8c1.4-0.4,2.9-0.7,4.5-0.7c2.5,0,4.9,0.4,6.9,1.2c2.1,0.8,3.9,1.9,5.4,3.4
	s2.6,3.2,3.4,5.3C188.9,330.8,189.3,333.1,189.3,335.7z M177.6,336.4c0-0.8-0.1-1.5-0.3-2.2c-0.2-0.7-0.5-1.3-1-1.9
	c-0.4-0.5-0.9-1-1.6-1.3s-1.3-0.5-2.1-0.5c-0.8,0-1.6,0.1-2.2,0.5c-0.6,0.3-1.2,0.7-1.7,1.2c-0.5,0.5-0.8,1.1-1.1,1.8
	c-0.2,0.7-0.4,1.4-0.4,2.2c0,0.7,0.1,1.5,0.3,2.2s0.5,1.4,0.9,2s0.9,1.1,1.6,1.5c0.6,0.4,1.4,0.5,2.2,0.5c0.8,0,1.6-0.2,2.2-0.5
	c0.7-0.3,1.2-0.8,1.7-1.3c0.5-0.5,0.8-1.2,1.1-1.9C177.5,337.9,177.6,337.1,177.6,336.4z M221.8,328.9c0,1.7-0.3,3.2-0.8,4.5
	c-0.5,1.3-1.2,2.5-2.1,3.4c-0.9,1-1.9,1.8-3.1,2.5c-1.2,0.7-2.5,1.2-3.8,1.7c-1.4,0.4-2.8,0.8-4.2,1s-2.9,0.3-4.3,0.3v12.2h-12.2
	c0-4,0-8,0-12c0-4,0-8,0.1-12c0-2.1,0-4.3,0-6.4c0-2.1,0-4.3,0.1-6.5c2.2-0.7,4.5-1.2,6.7-1.5c2.2-0.3,4.6-0.5,6.9-0.5
	c1.4,0,2.7,0.1,4.1,0.3s2.6,0.6,3.9,1s2.4,1.1,3.4,1.5s2,1.6,2.8,2.5s1.4,2.1,1.8,3.4C221.5,326,221.8,327.4,221.8,328.9z
	 M210.1,329.8c0-1.1-0.4-2-1-2.7c-0.7-0.6-1.6-1-2.7-1c-0.4,0-0.8,0-1.1,0.1s-0.8,0.1-1.1,0.2l-0.3,7.7c0.2,0,0.5,0,0.7,0
	c0.2,0,0.5,0,0.7,0c0.6,0,1.2-0.1,1.8-0.3c0.6-0.2,1.1-0.5,1.6-0.9c0.5-0.4,0.8-0.9,1.1-1.4C209.9,331.1,210.1,330.5,210.1,329.8z
	 M248.1,316.3c-0.1,1.6-0.2,3.3-0.3,4.9s-0.2,3.2-0.3,4.9l-11.1,0.6l-0.3,3.3h7.8l-0.6,8.1l-7.9,0.3l-0.3,3.8h6.5h4.6
	c-0.1,1.9-0.2,3.8-0.3,5.8c-0.1,1.9-0.2,3.8-0.3,5.7l-22.7,0.5l0.8-37.9H248.1z M279.8,328.9c0,1.4-0.1,2.6-0.4,3.7
	c-0.2,1.1-0.6,2.1-1.1,3.1s-1.2,1.8-2,2.6c-0.8,0.8-1.8,1.5-2.9,2.3l6.3,11.1l-11.8,2.3l-4-11.2l-3.3,0.1l-0.5,10.9h-11.3
	c0.1-4,0.2-8,0.2-11.9s0.2-7.9,0.3-11.9c0-2,0.1-4,0.1-6c0-2,0.1-4,0.2-6c1.2-0.5,2.4-0.8,3.6-1.1c1.2-0.3,2.4-0.5,3.6-0.7
	c1.2-0.2,2.4-0.3,3.6-0.3c1.2-0.1,2.5-0.1,3.8-0.1c2,0,3.9,0.3,5.8,0.5s3.5,1.4,5,2.5s2.6,2.5,3.5,4.1
	C279.4,324.8,279.8,326.7,279.8,328.9z M268,329.7c0-0.7-0.1-1.4-0.3-2c-0.2-0.6-0.5-1.1-0.9-1.6c-0.4-0.5-0.9-0.8-1.5-1
	c-0.6-0.2-1.3-0.4-2.1-0.4c-0.4,0-0.7,0-1,0.1c-0.3,0-0.7,0.1-1,0.2l-0.4,9.8h0.6c0.8,0,1.5-0.1,2.3-0.3s1.5-0.5,2.1-0.9
	c0.6-0.4,1.1-0.9,1.5-1.5C267.8,331.4,268,330.6,268,329.7z M312.5,328.9c0,1.4-0.1,2.6-0.4,3.7c-0.2,1.1-0.6,2.1-1.1,3.1
	s-1.2,1.8-2,2.6c-0.8,0.8-1.8,1.5-2.9,2.3l6.3,11.1l-11.8,2.3l-4-11.2l-3.3,0.1l-0.5,10.9h-11.3c0.1-4,0.2-8,0.2-11.9
	s0.2-7.9,0.3-11.9c0-2,0.1-4,0.1-6c0-2,0.1-4,0.2-6c1.2-0.5,2.4-0.8,3.6-1.1c1.2-0.3,2.4-0.5,3.6-0.7c1.2-0.2,2.4-0.3,3.6-0.3
	c1.2-0.1,2.5-0.1,3.8-0.1c2,0,3.9,0.3,5.8,0.5s3.5,1.4,5,2.5s2.6,2.5,3.5,4.1C312,324.8,312.5,326.7,312.5,328.9z M300.7,329.7
	c0-0.7-0.1-1.4-0.3-2c-0.2-0.6-0.5-1.1-0.9-1.6c-0.4-0.5-0.9-0.8-1.5-1c-0.6-0.2-1.3-0.4-2.1-0.4c-0.4,0-0.7,0-1,0.1
	c-0.3,0-0.7,0.1-1,0.2l-0.4,9.8h0.6c0.8,0,1.5-0.1,2.3-0.3s1.5-0.5,2.1-0.9s1.1-0.9,1.5-1.5C300.5,331.4,300.7,330.6,300.7,329.7z
	 M346.4,335.7c0,1.6-0.2,3.1-0.5,4.6c-0.4,1.5-0.9,2.9-1.6,4.2c-0.7,1.3-1.5,2.5-2.5,3.6s-2.1,2-3.3,2.5s-2.6,1.4-4,1.8
	c-1.5,0.4-3,0.6-4.6,0.6c-1.6,0-3.1-0.2-4.5-0.6c-1.4-0.4-2.8-1-4-1.7c-1.2-0.7-2.4-1.6-3.4-2.6s-1.9-2.2-2.6-3.4
	c-0.7-1.2-1.3-2.6-1.7-4c-0.4-1.4-0.6-2.9-0.6-4.5c0-1.5,0.2-3,0.5-4.5c0.4-1.5,0.9-2.8,1.6-4.1c0.7-1.3,1.5-2.5,2.5-3.6
	s2.1-2,3.3-2.5s2.5-1.4,4-1.8c1.4-0.4,2.9-0.7,4.5-0.7c2.5,0,4.9,0.4,7,1.2c2.1,0.8,3.9,1.9,5.4,3.4c1.5,1.5,2.6,3.2,3.4,5.3
	C346,330.8,346.4,333.1,346.4,335.7z M334.8,336.4c0-0.8-0.1-1.5-0.3-2.2c-0.2-0.7-0.5-1.3-1-1.9s-0.9-1-1.6-1.3s-1.3-0.5-2.1-0.5
	c-0.8,0-1.6,0.1-2.2,0.5c-0.6,0.3-1.2,0.7-1.7,1.2s-0.8,1.1-1.1,1.8c-0.2,0.7-0.4,1.4-0.4,2.2c0,0.7,0.1,1.5,0.3,2.2
	c0.2,0.7,0.5,1.4,1,2s0.9,1.1,1.6,1.5c0.6,0.4,1.4,0.5,2.2,0.5s1.6-0.2,2.2-0.5c0.7-0.3,1.2-0.8,1.7-1.3c0.5-0.5,0.8-1.2,1-1.9
	C334.6,337.9,334.8,337.1,334.8,336.4z M374.9,340.2c0,2.4-0.4,4.5-1.2,6.3s-2,3.3-3.4,4.5s-3.1,2.1-5.1,2.7c-1.9,0.6-4,0.9-6.2,0.9
	c-0.9,0-1.8-0.1-2.8-0.3s-2.1-0.5-3.1-0.9c-1-0.3-2.1-0.7-3-1.1c-1-0.4-1.8-0.8-2.6-1.1l1.2-10.8c1.5,0.9,3.1,1.6,5,2
	s3.6,0.7,5.4,0.7c0.3,0,0.7,0,1.2,0s0.9-0.1,1.4-0.2s0.8-0.3,1.1-0.6s0.5-0.6,0.5-1.1c0-0.3-0.1-0.6-0.3-0.9
	c-0.2-0.2-0.5-0.4-0.8-0.6c-0.3-0.1-0.7-0.3-1.1-0.3s-0.8-0.1-1.2-0.2c-0.4,0-0.8,0-1.1,0s-0.6,0-0.8,0c-1.5,0-2.9-0.3-4.1-0.8
	s-2.3-1.3-3.2-2.2c-0.9-0.9-1.6-2-2.1-3.3s-0.7-2.7-0.7-4.2c0-2.1,0.4-3.9,1.2-5.6c0.8-1.6,2-3,3.3-4.2c1.4-1.1,3-2,4.8-2.6
	c1.8-0.6,3.7-0.9,5.6-0.9c0.9,0,1.7,0,2.7,0.1c0.9,0.1,1.8,0.2,2.7,0.3c0.9,0.2,1.8,0.4,2.6,0.6c0.9,0.2,1.7,0.5,2.5,0.9l-1,10.7
	c-1.2-0.4-2.4-0.7-3.8-1c-1.3-0.3-2.6-0.4-3.8-0.4c-0.2,0-0.5,0-0.9,0c-0.4,0-0.7,0-1.1,0.1s-0.8,0.1-1.2,0.2
	c-0.4,0.1-0.8,0.2-1.1,0.4c-0.3,0.1-0.6,0.4-0.8,0.6c-0.2,0.2-0.3,0.5-0.3,0.9c0,0.4,0.2,0.7,0.4,0.9c0.3,0.2,0.6,0.4,1,0.5
	c0.4,0.1,0.9,0.2,1.4,0.3c0.5,0,1,0.1,1.5,0.1s1,0,1.4,0s0.8,0,1.1,0c1.4,0.1,2.7,0.4,3.8,0.9c1.1,0.5,2.1,1.2,2.9,2s1.4,1.8,1.8,3
	C374.7,337.6,374.9,338.9,374.9,340.2z"/>
</svg>
