<?xml version="1.0" encoding="utf-8"?>
<!-- Generator: Adobe Illustrator 24.0.0, SVG Export Plug-In . SVG Version: 6.00 Build 0)  -->
<svg version="1.1" xmlns="http://www.w3.org/2000/svg" xmlns:xlink="http://www.w3.org/1999/xlink" x="0px" y="0px"
	 viewBox="0 0 400 400" style="enable-background:new 0 0 400 400;" xml:space="preserve">
<style type="text/css">
	.st0{fill:none;
    .st1{fill:none;stroke:transparent;}
	.st2{fill:transparent;}
	.st3{fill:transparent;
	-webkit-animation: animacion 5s forwards;
	-moz-animation: animacion 5s forwards;
	-o-animation: animacion 5s forwards;
	animation: animacion 5s forwards;
	}

	@-webkit-keyframes animacion {​​
	0% {​​
	stroke-dashoffset: 900;
	}​​
	90% {​​
	stroke: #fff;
	}​​

100% {​​
stroke-dashoffset: 0;
stroke: transparent;
}​​
}​​

@-keyframes animacion {​​
0% {​​
stroke-dashoffset: 460;
}​​
90% {​​
stroke: #fff;
}​​

100% {​​
stroke-dashoffset: 0;
stroke: transparent;
}​​
}​​
	stroke:#FFFFFF;
	stroke-width:2;
	stroke-desharray: 1300;
	stroke-miterlimit:10;}

</style>
<g id="Trazado">
	<g>
		<path class="st0" d="M194.36,298.68c-34.6,0-69.21,0-103.81,0c-8.25,0-12.46-4.22-12.46-12.48c0-56.27,0.02-112.54-0.02-168.81
			c-0.01-8.92,3.89-15.39,11.64-19.56c31.36-16.91,62.74-33.77,94.11-50.67c7.41-3.99,14.69-3.92,22.11,0.11
			c30.97,16.8,61.98,33.54,93,50.26c8.22,4.43,12.17,11.17,12.16,20.5c-0.05,55.97-0.02,111.95-0.02,167.92
			c0,8.38-4.3,12.73-12.6,12.73C263.77,298.68,229.07,298.68,194.36,298.68z M135.4,175.78c-22.02-13.06-22.15-39.45-9.05-53.64
			c13.26-14.36,36.41-14.77,49.86-0.63c6.91,7.26,10.23,15.97,9.53,25.97c-0.85,12.33-7.05,21.5-17.6,27.94
			c6.54,8.38,10.51,17.83,13.63,27.68c7.55,23.83,10.31,48.39,11.13,73.24c0.1,3.1,0.01,6.2,0.01,9.25c2.83,0,5.13,0,7.05,0
			c1.61-9.26,2.78-18.31,4.82-27.16c3.89-16.9,9.1-33.3,22.07-45.94c-0.23-0.17-0.43-0.36-0.67-0.5
			c-12.52-7.23-18.06-17.95-16.32-32.4c0.13-1.1-0.38-2.48-1.02-3.44c-1.85-2.77-4-5.33-5.87-8.08c-1.92-2.81-0.92-4.91,2.39-5.32
			c3.5-0.43,7.02-0.67,10.49-1.26c2.25-0.38,4.74-0.75,6.57-1.96c11.16-7.36,24.08-7.43,35.34,0.03c1.02,0.67,2.25,1.23,3.45,1.4
			c4.94,0.69,9.91,1.2,14.86,1.8c3.36,0.41,4.37,2.5,2.44,5.3c-2,2.9-4.07,5.77-6.31,8.49c-1.35,1.64-1.82,3.25-1.64,5.36
			c0.76,8.72-1.59,16.57-7.58,23.01c-2.69,2.9-6.02,5.2-9.12,7.82c6.58,5.74,10.94,13.34,14.44,21.52
			c6.65,15.55,9.87,31.93,11.65,48.65c0.23,2.12,0.68,3.23,3.1,2.99c2.23-0.22,4.51-0.03,6.76-0.05c5.74-0.05,8.4-2.73,8.4-8.5
			c0.01-53.24-0.01-106.48,0.04-159.72c0-3.96-1.45-6.56-5.01-8.47c-29.75-15.99-59.45-32.07-89.14-48.18
			c-6.31-3.42-12.43-3.38-18.73,0.02c-27.82,15.02-55.65,30.03-83.55,44.91c-7.54,4.02-11.05,9.99-11.03,18.51
			c0.08,50.59,0.04,101.18,0.05,151.77c0,1.27-0.02,2.56,0.2,3.81c0.53,3,2.38,5.3,5.32,5.55c4.71,0.41,9.49,0.11,14.67,0.11
			c0-3.39-0.07-6.51,0.01-9.63c0.56-21.71,2.98-43.19,8.51-64.23C122.92,198.98,127.3,186.54,135.4,175.78z M175.76,285.7
			c0.16-0.4,0.3-0.57,0.3-0.75c-0.03-2.15-0.07-4.3-0.12-6.46c-0.43-20.72-2.6-41.23-7.79-61.34c-2.62-10.16-5.62-20.26-11.87-28.89
			c-4.22-5.83-4.34-5.85-8.76,0.09c-4.91,6.6-7.55,14.34-9.91,22.13c-5.91,19.53-8.43,39.61-9.39,59.91
			c-0.24,5.04-0.04,10.11-0.04,15.3C143.93,285.7,159.78,285.7,175.76,285.7z M263.04,285.71c-0.39-12.92-5.62-35.35-11.24-46.55
			c-2.22-4.42-5.01-8.63-8.07-12.53c-2.39-3.05-4.12-3.02-6.52-0.18c-2.69,3.18-5.23,6.63-7.15,10.32
			c-5.66,10.87-8.51,22.68-10.63,34.67c-0.82,4.67-1.36,9.39-2.05,14.27C232.88,285.71,247.84,285.71,263.04,285.71z M168.83,145.41
			c0.02-9.47-7.66-17.28-17.05-17.34c-9.55-0.06-17.43,7.77-17.4,17.3c0.03,9.38,7.89,17.26,17.22,17.26
			C160.93,162.62,168.81,154.75,168.83,145.41z M225.27,184.7c0.02,8.11,6.66,14.79,14.74,14.84c8.22,0.05,14.99-6.72,14.96-14.93
			c-0.03-8.24-6.76-14.85-15.06-14.79C231.8,169.88,225.24,176.55,225.27,184.7z M263.78,175.61c1.69-2.27,3.1-4.16,4.83-6.48
			c-2.93-0.32-5.22-0.58-7.92-0.88C261.73,170.74,262.66,172.95,263.78,175.61z M220.84,168.29c-2.81,0.3-5.16,0.56-7.97,0.86
			c1.66,2.25,3.03,4.09,4.68,6.33C218.7,172.97,219.68,170.82,220.84,168.29z"/>
		<path class="st0" d="M243.99,187.29c-2.05,2.47-4.9,2.52-7.23,0.12C238.74,185,241.64,184.95,243.99,187.29z"/>
		<g>
			<path class="st1" d="M65.63,315.9l-2.42,38.6l-11.99,0.53l0.11-20.35l-5.42,16.41h-4.63l-4.15-14.67l-0.05,17.04l-12.15,0.37
				l0.53-36.34l13.51-0.53l5.36,17.41l7.15-18.46H65.63z"/>
			<path class="st1" d="M100.26,351.97l-13.04,1.68l-1.58-5.94h-6l-1.31,5.94l-13.41-1.31l10.46-35.02L90,316.58L100.26,351.97z
				 M84.69,339.67l-2-9.15l-1.95,9.15H84.69z"/>
			<path class="st1" d="M127.73,340.25c0,2.4-0.42,4.5-1.25,6.3c-0.83,1.8-1.97,3.29-3.42,4.48s-3.14,2.09-5.07,2.68
				c-1.94,0.6-4.02,0.89-6.24,0.89c-0.86,0-1.8-0.11-2.83-0.34c-1.03-0.23-2.06-0.51-3.12-0.85c-1.05-0.34-2.06-0.71-3.04-1.1
				c-0.97-0.39-1.84-0.77-2.59-1.12l1.16-10.83c1.49,0.89,3.14,1.57,4.96,2.04c1.81,0.46,3.6,0.7,5.35,0.7
				c0.33,0,0.74-0.01,1.21-0.04c0.47-0.03,0.92-0.11,1.35-0.24c0.43-0.13,0.79-0.33,1.09-0.59c0.3-0.26,0.45-0.64,0.45-1.13
				c0-0.33-0.11-0.62-0.32-0.85c-0.21-0.24-0.48-0.43-0.81-0.58c-0.33-0.15-0.71-0.26-1.13-0.34c-0.42-0.08-0.83-0.14-1.24-0.17
				c-0.4-0.04-0.78-0.05-1.13-0.05c-0.35,0-0.63,0-0.84,0c-1.51,0-2.88-0.26-4.11-0.79s-2.3-1.26-3.18-2.2
				c-0.89-0.94-1.57-2.05-2.06-3.34c-0.49-1.29-0.74-2.69-0.74-4.19c0-2.07,0.42-3.92,1.25-5.56c0.83-1.64,1.95-3.03,3.34-4.18
				c1.39-1.15,2.99-2.03,4.8-2.64c1.81-0.61,3.67-0.92,5.6-0.92c0.86,0,1.74,0.03,2.66,0.09c0.91,0.06,1.82,0.17,2.72,0.33
				c0.9,0.16,1.78,0.36,2.64,0.6c0.86,0.25,1.67,0.55,2.45,0.92l-1,10.68c-1.19-0.4-2.44-0.74-3.75-1.01
				c-1.31-0.27-2.58-0.41-3.83-0.41c-0.23,0-0.52,0-0.88,0.01c-0.36,0.01-0.74,0.04-1.13,0.08c-0.39,0.04-0.79,0.11-1.2,0.2
				c-0.4,0.09-0.76,0.21-1.08,0.36c-0.32,0.15-0.57,0.35-0.76,0.59c-0.19,0.25-0.28,0.53-0.26,0.87c0.02,0.39,0.16,0.7,0.43,0.93
				c0.27,0.24,0.62,0.42,1.05,0.55c0.43,0.13,0.9,0.22,1.42,0.28c0.52,0.05,1.03,0.08,1.54,0.09c0.51,0.01,0.98,0.01,1.42,0
				c0.44-0.01,0.8,0,1.08,0.04c1.4,0.09,2.66,0.39,3.79,0.89c1.12,0.51,2.07,1.18,2.85,2.02c0.78,0.84,1.38,1.84,1.79,3.01
				C127.53,337.56,127.73,338.85,127.73,340.25z"/>
			<path class="st1" d="M155.45,317.27l-1.47,11.1c-0.51-0.14-1.02-0.24-1.52-0.29c-0.51-0.05-1.02-0.08-1.53-0.08
				c-1.3,0-2.53,0.17-3.71,0.51c-1.17,0.34-2.21,0.86-3.12,1.56c-0.9,0.7-1.62,1.58-2.16,2.63c-0.53,1.05-0.8,2.29-0.8,3.71
				c0,0.91,0.14,1.7,0.43,2.37c0.29,0.67,0.7,1.22,1.22,1.66c0.53,0.44,1.15,0.76,1.87,0.97c0.72,0.21,1.51,0.32,2.37,0.32
				c0.65,0,1.32-0.07,2.02-0.21c0.7-0.14,1.39-0.32,2.08-0.55c0.68-0.23,1.35-0.49,2-0.79c0.65-0.3,1.24-0.6,1.79-0.92l-1.05,12.36
				c-0.68,0.35-1.42,0.66-2.22,0.93c-0.8,0.27-1.62,0.51-2.46,0.71s-1.68,0.36-2.52,0.46c-0.84,0.11-1.65,0.16-2.42,0.16
				c-2.23,0-4.3-0.41-6.23-1.24c-1.93-0.82-3.6-1.95-5.02-3.39c-1.42-1.44-2.54-3.13-3.35-5.09c-0.82-1.95-1.22-4.06-1.22-6.32
				c0-3,0.43-5.82,1.29-8.48c0.86-2.66,2.12-4.98,3.79-6.98c1.67-2,3.73-3.58,6.19-4.73c2.46-1.16,5.3-1.74,8.51-1.74
				c1.21,0,2.45,0.1,3.72,0.29C153.18,316.38,154.36,316.74,155.45,317.27z"/>
			<path class="st1" d="M189.29,335.67c0,1.59-0.18,3.13-0.55,4.61c-0.37,1.48-0.9,2.87-1.59,4.17c-0.69,1.3-1.53,2.48-2.52,3.56
				c-0.99,1.08-2.1,2-3.34,2.77c-1.24,0.77-2.58,1.37-4.04,1.8c-1.46,0.43-3,0.64-4.63,0.64c-1.58,0-3.08-0.2-4.51-0.6
				c-1.43-0.4-2.77-0.97-4.01-1.7c-1.25-0.73-2.37-1.6-3.38-2.63c-1.01-1.03-1.87-2.16-2.58-3.42c-0.71-1.25-1.26-2.6-1.66-4.04
				c-0.39-1.44-0.59-2.94-0.59-4.5c0-1.53,0.18-3.02,0.55-4.48c0.37-1.46,0.9-2.84,1.59-4.14c0.69-1.3,1.53-2.49,2.51-3.58
				c0.98-1.09,2.08-2.02,3.3-2.81c1.22-0.79,2.54-1.4,3.96-1.84c1.42-0.44,2.92-0.66,4.5-0.66c2.54,0,4.86,0.39,6.95,1.18
				c2.09,0.79,3.88,1.92,5.36,3.38c1.48,1.46,2.63,3.23,3.44,5.31C188.88,330.8,189.29,333.11,189.29,335.67z M177.61,336.36
				c0-0.75-0.11-1.49-0.33-2.2c-0.22-0.71-0.54-1.34-0.96-1.89c-0.42-0.55-0.94-1-1.56-1.34c-0.62-0.34-1.34-0.51-2.14-0.51
				c-0.82,0-1.56,0.15-2.21,0.45c-0.65,0.3-1.21,0.71-1.67,1.22c-0.46,0.52-0.82,1.12-1.06,1.81c-0.25,0.69-0.37,1.42-0.37,2.2
				c0,0.74,0.11,1.47,0.32,2.21c0.21,0.74,0.53,1.4,0.95,2c0.42,0.6,0.94,1.08,1.56,1.45c0.62,0.37,1.35,0.55,2.17,0.55
				c0.82,0,1.56-0.16,2.22-0.49c0.66-0.32,1.21-0.76,1.67-1.31c0.46-0.55,0.81-1.19,1.05-1.91
				C177.49,337.87,177.61,337.13,177.61,336.36z"/>
			<path class="st1" d="M221.76,328.94c0,1.7-0.26,3.21-0.76,4.52c-0.51,1.32-1.21,2.46-2.09,3.44c-0.89,0.98-1.92,1.81-3.12,2.5
				c-1.19,0.68-2.47,1.24-3.83,1.67c-1.36,0.43-2.77,0.75-4.22,0.95c-1.45,0.2-2.88,0.31-4.29,0.33v12.25h-12.25
				c0-4.01,0.01-8.01,0.03-11.99c0.02-3.98,0.04-7.99,0.08-12.04c0.03-2.14,0.04-4.28,0.03-6.42c-0.02-2.14,0.03-4.29,0.13-6.47
				c2.24-0.67,4.49-1.17,6.73-1.5c2.24-0.33,4.56-0.5,6.94-0.5c1.35,0,2.7,0.11,4.05,0.33c1.35,0.22,2.64,0.57,3.88,1.04
				c1.24,0.47,2.38,1.06,3.44,1.77c1.06,0.71,1.98,1.56,2.75,2.54c0.77,0.98,1.38,2.1,1.83,3.35
				C221.54,325.97,221.76,327.38,221.76,328.94z M210.09,329.84c0-1.14-0.35-2.03-1.04-2.67c-0.69-0.64-1.59-0.96-2.7-0.96
				c-0.37,0-0.75,0.03-1.14,0.09c-0.39,0.06-0.77,0.14-1.12,0.22l-0.32,7.68c0.24,0.04,0.48,0.05,0.71,0.05c0.23,0,0.46,0,0.71,0
				c0.63,0,1.24-0.11,1.83-0.32c0.59-0.21,1.11-0.51,1.56-0.91c0.46-0.39,0.82-0.86,1.09-1.39
				C209.95,331.1,210.09,330.5,210.09,329.84z"/>
			<path class="st1" d="M248.11,316.32c-0.11,1.65-0.2,3.28-0.29,4.89s-0.2,3.24-0.34,4.89l-11.15,0.58l-0.26,3.31h7.84l-0.58,8.15
				l-7.89,0.26l-0.26,3.84h6.52h4.63c-0.11,1.93-0.21,3.84-0.33,5.75c-0.11,1.9-0.21,3.81-0.3,5.72l-22.67,0.53l0.84-37.92H248.11z"
				/>
			<path class="st1" d="M279.82,328.89c0,1.37-0.12,2.61-0.36,3.72c-0.24,1.11-0.61,2.13-1.12,3.06c-0.51,0.93-1.17,1.79-1.97,2.58
				c-0.81,0.79-1.78,1.54-2.92,2.26l6.26,11.15l-11.83,2.31l-4.05-11.2l-3.26,0.11l-0.47,10.94h-11.31c0.09-4,0.17-7.98,0.25-11.94
				c0.08-3.96,0.17-7.94,0.28-11.94c0.04-2.02,0.07-4.01,0.11-6c0.04-1.98,0.11-3.98,0.21-5.99c1.23-0.46,2.44-0.83,3.63-1.13
				c1.19-0.3,2.39-0.53,3.59-0.7c1.2-0.17,2.42-0.28,3.65-0.34c1.24-0.06,2.5-0.09,3.8-0.09c2,0,3.93,0.28,5.8,0.83
				c1.87,0.55,3.52,1.38,4.96,2.48c1.44,1.1,2.59,2.48,3.46,4.13C279.38,324.78,279.82,326.7,279.82,328.89z M268.04,329.73
				c0-0.74-0.1-1.41-0.3-2.02c-0.2-0.61-0.5-1.14-0.89-1.59c-0.39-0.45-0.89-0.8-1.47-1.05c-0.59-0.25-1.28-0.38-2.06-0.38
				c-0.35,0-0.69,0.02-1.02,0.07c-0.33,0.04-0.66,0.11-0.97,0.2l-0.42,9.78h0.63c0.75,0,1.52-0.1,2.3-0.29
				c0.78-0.19,1.48-0.49,2.1-0.89c0.62-0.4,1.13-0.92,1.52-1.55C267.84,331.36,268.04,330.61,268.04,329.73z"/>
			<path class="st1" d="M312.45,328.89c0,1.37-0.12,2.61-0.36,3.72c-0.24,1.11-0.61,2.13-1.12,3.06c-0.51,0.93-1.17,1.79-1.97,2.58
				c-0.81,0.79-1.78,1.54-2.92,2.26l6.26,11.15l-11.83,2.31l-4.05-11.2l-3.26,0.11l-0.47,10.94h-11.31c0.09-4,0.17-7.98,0.25-11.94
				c0.08-3.96,0.17-7.94,0.28-11.94c0.04-2.02,0.07-4.01,0.11-6c0.04-1.98,0.11-3.98,0.21-5.99c1.23-0.46,2.44-0.83,3.63-1.13
				c1.19-0.3,2.39-0.53,3.59-0.7c1.2-0.17,2.42-0.28,3.65-0.34c1.24-0.06,2.5-0.09,3.8-0.09c2,0,3.93,0.28,5.8,0.83
				c1.87,0.55,3.52,1.38,4.96,2.48c1.44,1.1,2.59,2.48,3.46,4.13C312.01,324.78,312.45,326.7,312.45,328.89z M300.67,329.73
				c0-0.74-0.1-1.41-0.3-2.02c-0.2-0.61-0.5-1.14-0.89-1.59c-0.39-0.45-0.89-0.8-1.47-1.05c-0.59-0.25-1.28-0.38-2.06-0.38
				c-0.35,0-0.69,0.02-1.02,0.07c-0.33,0.04-0.66,0.11-0.97,0.2l-0.42,9.78h0.63c0.75,0,1.52-0.1,2.3-0.29
				c0.78-0.19,1.48-0.49,2.1-0.89s1.13-0.92,1.52-1.55C300.47,331.36,300.67,330.61,300.67,329.73z"/>
			<path class="st1" d="M346.42,335.67c0,1.59-0.18,3.13-0.55,4.61c-0.37,1.48-0.9,2.87-1.59,4.17c-0.69,1.3-1.53,2.48-2.52,3.56
				c-0.99,1.08-2.1,2-3.34,2.77c-1.24,0.77-2.58,1.37-4.04,1.8c-1.46,0.43-3,0.64-4.63,0.64c-1.58,0-3.08-0.2-4.51-0.6
				c-1.43-0.4-2.77-0.97-4.01-1.7c-1.25-0.73-2.37-1.6-3.38-2.63c-1.01-1.03-1.87-2.16-2.58-3.42c-0.71-1.25-1.26-2.6-1.66-4.04
				c-0.39-1.44-0.59-2.94-0.59-4.5c0-1.53,0.18-3.02,0.55-4.48c0.37-1.46,0.9-2.84,1.59-4.14c0.69-1.3,1.53-2.49,2.51-3.58
				c0.98-1.09,2.08-2.02,3.3-2.81c1.22-0.79,2.54-1.4,3.96-1.84c1.42-0.44,2.92-0.66,4.5-0.66c2.54,0,4.86,0.39,6.95,1.18
				c2.09,0.79,3.88,1.92,5.36,3.38c1.48,1.46,2.63,3.23,3.44,5.31C346.01,330.8,346.42,333.11,346.42,335.67z M334.75,336.36
				c0-0.75-0.11-1.49-0.33-2.2c-0.22-0.71-0.54-1.34-0.96-1.89s-0.94-1-1.56-1.34c-0.62-0.34-1.34-0.51-2.14-0.51
				c-0.82,0-1.56,0.15-2.21,0.45c-0.65,0.3-1.21,0.71-1.67,1.22s-0.82,1.12-1.06,1.81c-0.25,0.69-0.37,1.42-0.37,2.2
				c0,0.74,0.11,1.47,0.32,2.21c0.21,0.74,0.53,1.4,0.95,2c0.42,0.6,0.94,1.08,1.56,1.45c0.62,0.37,1.35,0.55,2.17,0.55
				c0.82,0,1.56-0.16,2.22-0.49c0.66-0.32,1.21-0.76,1.67-1.31c0.46-0.55,0.81-1.19,1.05-1.91
				C334.62,337.87,334.75,337.13,334.75,336.36z"/>
			<path class="st1" d="M374.92,340.25c0,2.4-0.42,4.5-1.25,6.3c-0.83,1.8-1.97,3.29-3.42,4.48c-1.45,1.19-3.14,2.09-5.07,2.68
				c-1.94,0.6-4.02,0.89-6.25,0.89c-0.86,0-1.8-0.11-2.83-0.34c-1.03-0.23-2.06-0.51-3.12-0.85c-1.05-0.34-2.06-0.71-3.04-1.1
				c-0.97-0.39-1.84-0.77-2.59-1.12l1.16-10.83c1.49,0.89,3.14,1.57,4.96,2.04s3.6,0.7,5.35,0.7c0.33,0,0.74-0.01,1.21-0.04
				c0.47-0.03,0.92-0.11,1.35-0.24c0.43-0.13,0.79-0.33,1.09-0.59c0.3-0.26,0.45-0.64,0.45-1.13c0-0.33-0.11-0.62-0.32-0.85
				c-0.21-0.24-0.48-0.43-0.82-0.58c-0.33-0.15-0.71-0.26-1.13-0.34c-0.42-0.08-0.83-0.14-1.24-0.17c-0.4-0.04-0.78-0.05-1.13-0.05
				c-0.35,0-0.63,0-0.84,0c-1.51,0-2.88-0.26-4.12-0.79s-2.3-1.26-3.18-2.2c-0.89-0.94-1.57-2.05-2.06-3.34
				c-0.49-1.29-0.74-2.69-0.74-4.19c0-2.07,0.42-3.92,1.25-5.56c0.83-1.64,1.95-3.03,3.34-4.18c1.39-1.15,2.99-2.03,4.8-2.64
				c1.81-0.61,3.67-0.92,5.6-0.92c0.86,0,1.74,0.03,2.66,0.09c0.91,0.06,1.82,0.17,2.72,0.33c0.9,0.16,1.78,0.36,2.64,0.6
				c0.86,0.25,1.67,0.55,2.45,0.92l-1,10.68c-1.19-0.4-2.44-0.74-3.75-1.01c-1.31-0.27-2.58-0.41-3.83-0.41
				c-0.23,0-0.52,0-0.88,0.01c-0.36,0.01-0.74,0.04-1.13,0.08s-0.79,0.11-1.2,0.2c-0.4,0.09-0.76,0.21-1.08,0.36
				c-0.32,0.15-0.57,0.35-0.76,0.59c-0.19,0.25-0.28,0.53-0.26,0.87c0.02,0.39,0.16,0.7,0.43,0.93c0.27,0.24,0.62,0.42,1.05,0.55
				c0.43,0.13,0.9,0.22,1.42,0.28c0.52,0.05,1.03,0.08,1.54,0.09c0.51,0.01,0.98,0.01,1.42,0c0.44-0.01,0.8,0,1.08,0.04
				c1.4,0.09,2.66,0.39,3.79,0.89c1.12,0.51,2.07,1.18,2.85,2.02c0.78,0.84,1.38,1.84,1.79,3.01
				C374.72,337.56,374.92,338.85,374.92,340.25z"/>
		</g>
		<path class="st0" d="M194.36,298.68c-34.6,0-69.21,0-103.81,0c-8.25,0-12.46-4.22-12.46-12.48c0-56.27,0.02-112.54-0.02-168.81
			c-0.01-8.92,3.89-15.39,11.64-19.56c31.36-16.91,62.74-33.77,94.11-50.67c7.41-3.99,14.69-3.92,22.11,0.11
			c30.97,16.8,61.98,33.54,93,50.26c8.22,4.43,12.17,11.17,12.16,20.5c-0.05,55.97-0.02,111.95-0.02,167.92
			c0,8.38-4.3,12.73-12.6,12.73C263.77,298.68,229.07,298.68,194.36,298.68z M135.4,175.78c-22.02-13.06-22.15-39.45-9.05-53.64
			c13.26-14.36,36.41-14.77,49.86-0.63c6.91,7.26,10.23,15.97,9.53,25.97c-0.85,12.33-7.05,21.5-17.6,27.94
			c6.54,8.38,10.51,17.83,13.63,27.68c7.55,23.83,10.31,48.39,11.13,73.24c0.1,3.1,0.01,6.2,0.01,9.25c2.83,0,5.13,0,7.05,0
			c1.61-9.26,2.78-18.31,4.82-27.16c3.89-16.9,9.1-33.3,22.07-45.94c-0.23-0.17-0.43-0.36-0.67-0.5
			c-12.52-7.23-18.06-17.95-16.32-32.4c0.13-1.1-0.38-2.48-1.02-3.44c-1.85-2.77-4-5.33-5.87-8.08c-1.92-2.81-0.92-4.91,2.39-5.32
			c3.5-0.43,7.02-0.67,10.49-1.26c2.25-0.38,4.74-0.75,6.57-1.96c11.16-7.36,24.08-7.43,35.34,0.03c1.02,0.67,2.25,1.23,3.45,1.4
			c4.94,0.69,9.91,1.2,14.86,1.8c3.36,0.41,4.37,2.5,2.44,5.3c-2,2.9-4.07,5.77-6.31,8.49c-1.35,1.64-1.82,3.25-1.64,5.36
			c0.76,8.72-1.59,16.57-7.58,23.01c-2.69,2.9-6.02,5.2-9.12,7.82c6.58,5.74,10.94,13.34,14.44,21.52
			c6.65,15.55,9.87,31.93,11.65,48.65c0.23,2.12,0.68,3.23,3.1,2.99c2.23-0.22,4.51-0.03,6.76-0.05c5.74-0.05,8.4-2.73,8.4-8.5
			c0.01-53.24-0.01-106.48,0.04-159.72c0-3.96-1.45-6.56-5.01-8.47c-29.75-15.99-59.45-32.07-89.14-48.18
			c-6.31-3.42-12.43-3.38-18.73,0.02c-27.82,15.02-55.65,30.03-83.55,44.91c-7.54,4.02-11.05,9.99-11.03,18.51
			c0.08,50.59,0.04,101.18,0.05,151.77c0,1.27-0.02,2.56,0.2,3.81c0.53,3,2.38,5.3,5.32,5.55c4.71,0.41,9.49,0.11,14.67,0.11
			c0-3.39-0.07-6.51,0.01-9.63c0.56-21.71,2.98-43.19,8.51-64.23C122.92,198.98,127.3,186.54,135.4,175.78z M175.76,285.7
			c0.16-0.4,0.3-0.57,0.3-0.75c-0.03-2.15-0.07-4.3-0.12-6.46c-0.43-20.72-2.6-41.23-7.79-61.34c-2.62-10.16-5.62-20.26-11.87-28.89
			c-4.22-5.83-4.34-5.85-8.76,0.09c-4.91,6.6-7.55,14.34-9.91,22.13c-5.91,19.53-8.43,39.61-9.39,59.91
			c-0.24,5.04-0.04,10.11-0.04,15.3C143.93,285.7,159.78,285.7,175.76,285.7z M263.04,285.71c-0.39-12.92-5.62-35.35-11.24-46.55
			c-2.22-4.42-5.01-8.63-8.07-12.53c-2.39-3.05-4.12-3.02-6.52-0.18c-2.69,3.18-5.23,6.63-7.15,10.32
			c-5.66,10.87-8.51,22.68-10.63,34.67c-0.82,4.67-1.36,9.39-2.05,14.27C232.88,285.71,247.84,285.71,263.04,285.71z M168.83,145.41
			c0.02-9.47-7.66-17.28-17.05-17.34c-9.55-0.06-17.43,7.77-17.4,17.3c0.03,9.38,7.89,17.26,17.22,17.26
			C160.93,162.62,168.81,154.75,168.83,145.41z M225.27,184.7c0.02,8.11,6.66,14.79,14.74,14.84c8.22,0.05,14.99-6.72,14.96-14.93
			c-0.03-8.24-6.76-14.85-15.06-14.79C231.8,169.88,225.24,176.55,225.27,184.7z M263.78,175.61c1.69-2.27,3.1-4.16,4.83-6.48
			c-2.93-0.32-5.22-0.58-7.92-0.88C261.73,170.74,262.66,172.95,263.78,175.61z M220.84,168.29c-2.81,0.3-5.16,0.56-7.97,0.86
			c1.66,2.25,3.03,4.09,4.68,6.33C218.7,172.97,219.68,170.82,220.84,168.29z"/>
		<path class="st0" d="M243.99,187.29c-2.05,2.47-4.9,2.52-7.23,0.12C238.74,185,241.64,184.95,243.99,187.29z"/>
		<g>
			<path class="st0" d="M65.63,315.9l-2.42,38.6l-11.99,0.53l0.11-20.35l-5.42,16.41h-4.63l-4.15-14.67l-0.05,17.04l-12.15,0.37
				l0.53-36.34l13.51-0.53l5.36,17.41l7.15-18.46H65.63z"/>
			<path class="st0" d="M100.26,351.97l-13.04,1.68l-1.58-5.94h-6l-1.31,5.94l-13.41-1.31l10.46-35.02L90,316.58L100.26,351.97z
				 M84.69,339.67l-2-9.15l-1.95,9.15H84.69z"/>
			<path class="st0" d="M127.73,340.25c0,2.4-0.42,4.5-1.25,6.3c-0.83,1.8-1.97,3.29-3.42,4.48s-3.14,2.09-5.07,2.68
				c-1.94,0.6-4.02,0.89-6.24,0.89c-0.86,0-1.8-0.11-2.83-0.34c-1.03-0.23-2.06-0.51-3.12-0.85c-1.05-0.34-2.06-0.71-3.04-1.1
				c-0.97-0.39-1.84-0.77-2.59-1.12l1.16-10.83c1.49,0.89,3.14,1.57,4.96,2.04c1.81,0.46,3.6,0.7,5.35,0.7
				c0.33,0,0.74-0.01,1.21-0.04c0.47-0.03,0.92-0.11,1.35-0.24c0.43-0.13,0.79-0.33,1.09-0.59c0.3-0.26,0.45-0.64,0.45-1.13
				c0-0.33-0.11-0.62-0.32-0.85c-0.21-0.24-0.48-0.43-0.81-0.58c-0.33-0.15-0.71-0.26-1.13-0.34c-0.42-0.08-0.83-0.14-1.24-0.17
				c-0.4-0.04-0.78-0.05-1.13-0.05c-0.35,0-0.63,0-0.84,0c-1.51,0-2.88-0.26-4.11-0.79s-2.3-1.26-3.18-2.2
				c-0.89-0.94-1.57-2.05-2.06-3.34c-0.49-1.29-0.74-2.69-0.74-4.19c0-2.07,0.42-3.92,1.25-5.56c0.83-1.64,1.95-3.03,3.34-4.18
				c1.39-1.15,2.99-2.03,4.8-2.64c1.81-0.61,3.67-0.92,5.6-0.92c0.86,0,1.74,0.03,2.66,0.09c0.91,0.06,1.82,0.17,2.72,0.33
				c0.9,0.16,1.78,0.36,2.64,0.6c0.86,0.25,1.67,0.55,2.45,0.92l-1,10.68c-1.19-0.4-2.44-0.74-3.75-1.01
				c-1.31-0.27-2.58-0.41-3.83-0.41c-0.23,0-0.52,0-0.88,0.01c-0.36,0.01-0.74,0.04-1.13,0.08c-0.39,0.04-0.79,0.11-1.2,0.2
				c-0.4,0.09-0.76,0.21-1.08,0.36c-0.32,0.15-0.57,0.35-0.76,0.59c-0.19,0.25-0.28,0.53-0.26,0.87c0.02,0.39,0.16,0.7,0.43,0.93
				c0.27,0.24,0.62,0.42,1.05,0.55c0.43,0.13,0.9,0.22,1.42,0.28c0.52,0.05,1.03,0.08,1.54,0.09c0.51,0.01,0.98,0.01,1.42,0
				c0.44-0.01,0.8,0,1.08,0.04c1.4,0.09,2.66,0.39,3.79,0.89c1.12,0.51,2.07,1.18,2.85,2.02c0.78,0.84,1.38,1.84,1.79,3.01
				C127.53,337.56,127.73,338.85,127.73,340.25z"/>
			<path class="st0" d="M155.45,317.27l-1.47,11.1c-0.51-0.14-1.02-0.24-1.52-0.29c-0.51-0.05-1.02-0.08-1.53-0.08
				c-1.3,0-2.53,0.17-3.71,0.51c-1.17,0.34-2.21,0.86-3.12,1.56c-0.9,0.7-1.62,1.58-2.16,2.63c-0.53,1.05-0.8,2.29-0.8,3.71
				c0,0.91,0.14,1.7,0.43,2.37c0.29,0.67,0.7,1.22,1.22,1.66c0.53,0.44,1.15,0.76,1.87,0.97c0.72,0.21,1.51,0.32,2.37,0.32
				c0.65,0,1.32-0.07,2.02-0.21c0.7-0.14,1.39-0.32,2.08-0.55c0.68-0.23,1.35-0.49,2-0.79c0.65-0.3,1.24-0.6,1.79-0.92l-1.05,12.36
				c-0.68,0.35-1.42,0.66-2.22,0.93c-0.8,0.27-1.62,0.51-2.46,0.71s-1.68,0.36-2.52,0.46c-0.84,0.11-1.65,0.16-2.42,0.16
				c-2.23,0-4.3-0.41-6.23-1.24c-1.93-0.82-3.6-1.95-5.02-3.39c-1.42-1.44-2.54-3.13-3.35-5.09c-0.82-1.95-1.22-4.06-1.22-6.32
				c0-3,0.43-5.82,1.29-8.48c0.86-2.66,2.12-4.98,3.79-6.98c1.67-2,3.73-3.58,6.19-4.73c2.46-1.16,5.3-1.74,8.51-1.74
				c1.21,0,2.45,0.1,3.72,0.29C153.18,316.38,154.36,316.74,155.45,317.27z"/>
			<path class="st0" d="M189.29,335.67c0,1.59-0.18,3.13-0.55,4.61c-0.37,1.48-0.9,2.87-1.59,4.17c-0.69,1.3-1.53,2.48-2.52,3.56
				c-0.99,1.08-2.1,2-3.34,2.77c-1.24,0.77-2.58,1.37-4.04,1.8c-1.46,0.43-3,0.64-4.63,0.64c-1.58,0-3.08-0.2-4.51-0.6
				c-1.43-0.4-2.77-0.97-4.01-1.7c-1.25-0.73-2.37-1.6-3.38-2.63c-1.01-1.03-1.87-2.16-2.58-3.42c-0.71-1.25-1.26-2.6-1.66-4.04
				c-0.39-1.44-0.59-2.94-0.59-4.5c0-1.53,0.18-3.02,0.55-4.48c0.37-1.46,0.9-2.84,1.59-4.14c0.69-1.3,1.53-2.49,2.51-3.58
				c0.98-1.09,2.08-2.02,3.3-2.81c1.22-0.79,2.54-1.4,3.96-1.84c1.42-0.44,2.92-0.66,4.5-0.66c2.54,0,4.86,0.39,6.95,1.18
				c2.09,0.79,3.88,1.92,5.36,3.38c1.48,1.46,2.63,3.23,3.44,5.31C188.88,330.8,189.29,333.11,189.29,335.67z M177.61,336.36
				c0-0.75-0.11-1.49-0.33-2.2c-0.22-0.71-0.54-1.34-0.96-1.89c-0.42-0.55-0.94-1-1.56-1.34c-0.62-0.34-1.34-0.51-2.14-0.51
				c-0.82,0-1.56,0.15-2.21,0.45c-0.65,0.3-1.21,0.71-1.67,1.22c-0.46,0.52-0.82,1.12-1.06,1.81c-0.25,0.69-0.37,1.42-0.37,2.2
				c0,0.74,0.11,1.47,0.32,2.21c0.21,0.74,0.53,1.4,0.95,2c0.42,0.6,0.94,1.08,1.56,1.45c0.62,0.37,1.35,0.55,2.17,0.55
				c0.82,0,1.56-0.16,2.22-0.49c0.66-0.32,1.21-0.76,1.67-1.31c0.46-0.55,0.81-1.19,1.05-1.91
				C177.49,337.87,177.61,337.13,177.61,336.36z"/>
			<path class="st0" d="M221.76,328.94c0,1.7-0.26,3.21-0.76,4.52c-0.51,1.32-1.21,2.46-2.09,3.44c-0.89,0.98-1.92,1.81-3.12,2.5
				c-1.19,0.68-2.47,1.24-3.83,1.67c-1.36,0.43-2.77,0.75-4.22,0.95c-1.45,0.2-2.88,0.31-4.29,0.33v12.25h-12.25
				c0-4.01,0.01-8.01,0.03-11.99c0.02-3.98,0.04-7.99,0.08-12.04c0.03-2.14,0.04-4.28,0.03-6.42c-0.02-2.14,0.03-4.29,0.13-6.47
				c2.24-0.67,4.49-1.17,6.73-1.5c2.24-0.33,4.56-0.5,6.94-0.5c1.35,0,2.7,0.11,4.05,0.33c1.35,0.22,2.64,0.57,3.88,1.04
				c1.24,0.47,2.38,1.06,3.44,1.77c1.06,0.71,1.98,1.56,2.75,2.54c0.77,0.98,1.38,2.1,1.83,3.35
				C221.54,325.97,221.76,327.38,221.76,328.94z M210.09,329.84c0-1.14-0.35-2.03-1.04-2.67c-0.69-0.64-1.59-0.96-2.7-0.96
				c-0.37,0-0.75,0.03-1.14,0.09c-0.39,0.06-0.77,0.14-1.12,0.22l-0.32,7.68c0.24,0.04,0.48,0.05,0.71,0.05c0.23,0,0.46,0,0.71,0
				c0.63,0,1.24-0.11,1.83-0.32c0.59-0.21,1.11-0.51,1.56-0.91c0.46-0.39,0.82-0.86,1.09-1.39
				C209.95,331.1,210.09,330.5,210.09,329.84z"/>
			<path class="st0" d="M248.11,316.32c-0.11,1.65-0.2,3.28-0.29,4.89s-0.2,3.24-0.34,4.89l-11.15,0.58l-0.26,3.31h7.84l-0.58,8.15
				l-7.89,0.26l-0.26,3.84h6.52h4.63c-0.11,1.93-0.21,3.84-0.33,5.75c-0.11,1.9-0.21,3.81-0.3,5.72l-22.67,0.53l0.84-37.92H248.11z"
				/>
			<path class="st0" d="M279.82,328.89c0,1.37-0.12,2.61-0.36,3.72c-0.24,1.11-0.61,2.13-1.12,3.06c-0.51,0.93-1.17,1.79-1.97,2.58
				c-0.81,0.79-1.78,1.54-2.92,2.26l6.26,11.15l-11.83,2.31l-4.05-11.2l-3.26,0.11l-0.47,10.94h-11.31c0.09-4,0.17-7.98,0.25-11.94
				c0.08-3.96,0.17-7.94,0.28-11.94c0.04-2.02,0.07-4.01,0.11-6c0.04-1.98,0.11-3.98,0.21-5.99c1.23-0.46,2.44-0.83,3.63-1.13
				c1.19-0.3,2.39-0.53,3.59-0.7c1.2-0.17,2.42-0.28,3.65-0.34c1.24-0.06,2.5-0.09,3.8-0.09c2,0,3.93,0.28,5.8,0.83
				c1.87,0.55,3.52,1.38,4.96,2.48c1.44,1.1,2.59,2.48,3.46,4.13C279.38,324.78,279.82,326.7,279.82,328.89z M268.04,329.73
				c0-0.74-0.1-1.41-0.3-2.02c-0.2-0.61-0.5-1.14-0.89-1.59c-0.39-0.45-0.89-0.8-1.47-1.05c-0.59-0.25-1.28-0.38-2.06-0.38
				c-0.35,0-0.69,0.02-1.02,0.07c-0.33,0.04-0.66,0.11-0.97,0.2l-0.42,9.78h0.63c0.75,0,1.52-0.1,2.3-0.29
				c0.78-0.19,1.48-0.49,2.1-0.89c0.62-0.4,1.13-0.92,1.52-1.55C267.84,331.36,268.04,330.61,268.04,329.73z"/>
			<path class="st0" d="M312.45,328.89c0,1.37-0.12,2.61-0.36,3.72c-0.24,1.11-0.61,2.13-1.12,3.06c-0.51,0.93-1.17,1.79-1.97,2.58
				c-0.81,0.79-1.78,1.54-2.92,2.26l6.26,11.15l-11.83,2.31l-4.05-11.2l-3.26,0.11l-0.47,10.94h-11.31c0.09-4,0.17-7.98,0.25-11.94
				c0.08-3.96,0.17-7.94,0.28-11.94c0.04-2.02,0.07-4.01,0.11-6c0.04-1.98,0.11-3.98,0.21-5.99c1.23-0.46,2.44-0.83,3.63-1.13
				c1.19-0.3,2.39-0.53,3.59-0.7c1.2-0.17,2.42-0.28,3.65-0.34c1.24-0.06,2.5-0.09,3.8-0.09c2,0,3.93,0.28,5.8,0.83
				c1.87,0.55,3.52,1.38,4.96,2.48c1.44,1.1,2.59,2.48,3.46,4.13C312.01,324.78,312.45,326.7,312.45,328.89z M300.67,329.73
				c0-0.74-0.1-1.41-0.3-2.02c-0.2-0.61-0.5-1.14-0.89-1.59c-0.39-0.45-0.89-0.8-1.47-1.05c-0.59-0.25-1.28-0.38-2.06-0.38
				c-0.35,0-0.69,0.02-1.02,0.07c-0.33,0.04-0.66,0.11-0.97,0.2l-0.42,9.78h0.63c0.75,0,1.52-0.1,2.3-0.29
				c0.78-0.19,1.48-0.49,2.1-0.89s1.13-0.92,1.52-1.55C300.47,331.36,300.67,330.61,300.67,329.73z"/>
			<path class="st0" d="M346.42,335.67c0,1.59-0.18,3.13-0.55,4.61c-0.37,1.48-0.9,2.87-1.59,4.17c-0.69,1.3-1.53,2.48-2.52,3.56
				c-0.99,1.08-2.1,2-3.34,2.77c-1.24,0.77-2.58,1.37-4.04,1.8c-1.46,0.43-3,0.64-4.63,0.64c-1.58,0-3.08-0.2-4.51-0.6
				c-1.43-0.4-2.77-0.97-4.01-1.7c-1.25-0.73-2.37-1.6-3.38-2.63c-1.01-1.03-1.87-2.16-2.58-3.42c-0.71-1.25-1.26-2.6-1.66-4.04
				c-0.39-1.44-0.59-2.94-0.59-4.5c0-1.53,0.18-3.02,0.55-4.48c0.37-1.46,0.9-2.84,1.59-4.14c0.69-1.3,1.53-2.49,2.51-3.58
				c0.98-1.09,2.08-2.02,3.3-2.81c1.22-0.79,2.54-1.4,3.96-1.84c1.42-0.44,2.92-0.66,4.5-0.66c2.54,0,4.86,0.39,6.95,1.18
				c2.09,0.79,3.88,1.92,5.36,3.38c1.48,1.46,2.63,3.23,3.44,5.31C346.01,330.8,346.42,333.11,346.42,335.67z M334.75,336.36
				c0-0.75-0.11-1.49-0.33-2.2c-0.22-0.71-0.54-1.34-0.96-1.89s-0.94-1-1.56-1.34c-0.62-0.34-1.34-0.51-2.14-0.51
				c-0.82,0-1.56,0.15-2.21,0.45c-0.65,0.3-1.21,0.71-1.67,1.22s-0.82,1.12-1.06,1.81c-0.25,0.69-0.37,1.42-0.37,2.2
				c0,0.74,0.11,1.47,0.32,2.21c0.21,0.74,0.53,1.4,0.95,2c0.42,0.6,0.94,1.08,1.56,1.45c0.62,0.37,1.35,0.55,2.17,0.55
				c0.82,0,1.56-0.16,2.22-0.49c0.66-0.32,1.21-0.76,1.67-1.31c0.46-0.55,0.81-1.19,1.05-1.91
				C334.62,337.87,334.75,337.13,334.75,336.36z"/>
			<path class="st0" d="M374.92,340.25c0,2.4-0.42,4.5-1.25,6.3c-0.83,1.8-1.97,3.29-3.42,4.48c-1.45,1.19-3.14,2.09-5.07,2.68
				c-1.94,0.6-4.02,0.89-6.25,0.89c-0.86,0-1.8-0.11-2.83-0.34c-1.03-0.23-2.06-0.51-3.12-0.85c-1.05-0.34-2.06-0.71-3.04-1.1
				c-0.97-0.39-1.84-0.77-2.59-1.12l1.16-10.83c1.49,0.89,3.14,1.57,4.96,2.04s3.6,0.7,5.35,0.7c0.33,0,0.74-0.01,1.21-0.04
				c0.47-0.03,0.92-0.11,1.35-0.24c0.43-0.13,0.79-0.33,1.09-0.59c0.3-0.26,0.45-0.64,0.45-1.13c0-0.33-0.11-0.62-0.32-0.85
				c-0.21-0.24-0.48-0.43-0.82-0.58c-0.33-0.15-0.71-0.26-1.13-0.34c-0.42-0.08-0.83-0.14-1.24-0.17c-0.4-0.04-0.78-0.05-1.13-0.05
				c-0.35,0-0.63,0-0.84,0c-1.51,0-2.88-0.26-4.12-0.79s-2.3-1.26-3.18-2.2c-0.89-0.94-1.57-2.05-2.06-3.34
				c-0.49-1.29-0.74-2.69-0.74-4.19c0-2.07,0.42-3.92,1.25-5.56c0.83-1.64,1.95-3.03,3.34-4.18c1.39-1.15,2.99-2.03,4.8-2.64
				c1.81-0.61,3.67-0.92,5.6-0.92c0.86,0,1.74,0.03,2.66,0.09c0.91,0.06,1.82,0.17,2.72,0.33c0.9,0.16,1.78,0.36,2.64,0.6
				c0.86,0.25,1.67,0.55,2.45,0.92l-1,10.68c-1.19-0.4-2.44-0.74-3.75-1.01c-1.31-0.27-2.58-0.41-3.83-0.41
				c-0.23,0-0.52,0-0.88,0.01c-0.36,0.01-0.74,0.04-1.13,0.08s-0.79,0.11-1.2,0.2c-0.4,0.09-0.76,0.21-1.08,0.36
				c-0.32,0.15-0.57,0.35-0.76,0.59c-0.19,0.25-0.28,0.53-0.26,0.87c0.02,0.39,0.16,0.7,0.43,0.93c0.27,0.24,0.62,0.42,1.05,0.55
				c0.43,0.13,0.9,0.22,1.42,0.28c0.52,0.05,1.03,0.08,1.54,0.09c0.51,0.01,0.98,0.01,1.42,0c0.44-0.01,0.8,0,1.08,0.04
				c1.4,0.09,2.66,0.39,3.79,0.89c1.12,0.51,2.07,1.18,2.85,2.02c0.78,0.84,1.38,1.84,1.79,3.01
				C374.72,337.56,374.92,338.85,374.92,340.25z"/>
		</g>
	</g>
</g>
<g id="Tipografía">
	<g>
		<path class="st2" d="M65.63,315.9l-2.42,38.6l-11.99,0.53l0.11-20.35l-5.42,16.41h-4.63l-4.15-14.67l-0.05,17.04l-12.15,0.37
			l0.53-36.34l13.51-0.53l5.36,17.41l7.15-18.46H65.63z"/>
		<path class="st2" d="M100.26,351.97l-13.04,1.68l-1.58-5.94h-6l-1.31,5.94l-13.41-1.31l10.46-35.02L90,316.58L100.26,351.97z
			 M84.69,339.67l-2-9.15l-1.95,9.15H84.69z"/>
		<path class="st2" d="M127.73,340.25c0,2.4-0.42,4.5-1.25,6.3c-0.83,1.8-1.97,3.29-3.42,4.48s-3.14,2.09-5.07,2.68
			c-1.94,0.6-4.02,0.89-6.24,0.89c-0.86,0-1.8-0.11-2.83-0.34c-1.03-0.23-2.06-0.51-3.12-0.85c-1.05-0.34-2.06-0.71-3.04-1.1
			c-0.97-0.39-1.84-0.77-2.59-1.12l1.16-10.83c1.49,0.89,3.14,1.57,4.96,2.04c1.81,0.46,3.6,0.7,5.35,0.7
			c0.33,0,0.74-0.01,1.21-0.04c0.47-0.03,0.92-0.11,1.35-0.24c0.43-0.13,0.79-0.33,1.09-0.59c0.3-0.26,0.45-0.64,0.45-1.13
			c0-0.33-0.11-0.62-0.32-0.85c-0.21-0.24-0.48-0.43-0.81-0.58c-0.33-0.15-0.71-0.26-1.13-0.34c-0.42-0.08-0.83-0.14-1.24-0.17
			c-0.4-0.04-0.78-0.05-1.13-0.05c-0.35,0-0.63,0-0.84,0c-1.51,0-2.88-0.26-4.11-0.79s-2.3-1.26-3.18-2.2
			c-0.89-0.94-1.57-2.05-2.06-3.34c-0.49-1.29-0.74-2.69-0.74-4.19c0-2.07,0.42-3.92,1.25-5.56c0.83-1.64,1.95-3.03,3.34-4.18
			c1.39-1.15,2.99-2.03,4.8-2.64c1.81-0.61,3.67-0.92,5.6-0.92c0.86,0,1.74,0.03,2.66,0.09c0.91,0.06,1.82,0.17,2.72,0.33
			c0.9,0.16,1.78,0.36,2.64,0.6c0.86,0.25,1.67,0.55,2.45,0.92l-1,10.68c-1.19-0.4-2.44-0.74-3.75-1.01
			c-1.31-0.27-2.58-0.41-3.83-0.41c-0.23,0-0.52,0-0.88,0.01c-0.36,0.01-0.74,0.04-1.13,0.08c-0.39,0.04-0.79,0.11-1.2,0.2
			c-0.4,0.09-0.76,0.21-1.08,0.36c-0.32,0.15-0.57,0.35-0.76,0.59c-0.19,0.25-0.28,0.53-0.26,0.87c0.02,0.39,0.16,0.7,0.43,0.93
			c0.27,0.24,0.62,0.42,1.05,0.55c0.43,0.13,0.9,0.22,1.42,0.28c0.52,0.05,1.03,0.08,1.54,0.09c0.51,0.01,0.98,0.01,1.42,0
			c0.44-0.01,0.8,0,1.08,0.04c1.4,0.09,2.66,0.39,3.79,0.89c1.12,0.51,2.07,1.18,2.85,2.02c0.78,0.84,1.38,1.84,1.79,3.01
			C127.53,337.56,127.73,338.85,127.73,340.25z"/>
		<path class="st2" d="M155.45,317.27l-1.47,11.1c-0.51-0.14-1.02-0.24-1.52-0.29c-0.51-0.05-1.02-0.08-1.53-0.08
			c-1.3,0-2.53,0.17-3.71,0.51c-1.17,0.34-2.21,0.86-3.12,1.56c-0.9,0.7-1.62,1.58-2.16,2.63c-0.53,1.05-0.8,2.29-0.8,3.71
			c0,0.91,0.14,1.7,0.43,2.37c0.29,0.67,0.7,1.22,1.22,1.66c0.53,0.44,1.15,0.76,1.87,0.97c0.72,0.21,1.51,0.32,2.37,0.32
			c0.65,0,1.32-0.07,2.02-0.21c0.7-0.14,1.39-0.32,2.08-0.55c0.68-0.23,1.35-0.49,2-0.79c0.65-0.3,1.24-0.6,1.79-0.92l-1.05,12.36
			c-0.68,0.35-1.42,0.66-2.22,0.93c-0.8,0.27-1.62,0.51-2.46,0.71s-1.68,0.36-2.52,0.46c-0.84,0.11-1.65,0.16-2.42,0.16
			c-2.23,0-4.3-0.41-6.23-1.24c-1.93-0.82-3.6-1.95-5.02-3.39c-1.42-1.44-2.54-3.13-3.35-5.09c-0.82-1.95-1.22-4.06-1.22-6.32
			c0-3,0.43-5.82,1.29-8.48c0.86-2.66,2.12-4.98,3.79-6.98c1.67-2,3.73-3.58,6.19-4.73c2.46-1.16,5.3-1.74,8.51-1.74
			c1.21,0,2.45,0.1,3.72,0.29C153.18,316.38,154.36,316.74,155.45,317.27z"/>
		<path class="st2" d="M189.29,335.67c0,1.59-0.18,3.13-0.55,4.61c-0.37,1.48-0.9,2.87-1.59,4.17c-0.69,1.3-1.53,2.48-2.52,3.56
			c-0.99,1.08-2.1,2-3.34,2.77c-1.24,0.77-2.58,1.37-4.04,1.8c-1.46,0.43-3,0.64-4.63,0.64c-1.58,0-3.08-0.2-4.51-0.6
			c-1.43-0.4-2.77-0.97-4.01-1.7c-1.25-0.73-2.37-1.6-3.38-2.63c-1.01-1.03-1.87-2.16-2.58-3.42c-0.71-1.25-1.26-2.6-1.66-4.04
			c-0.39-1.44-0.59-2.94-0.59-4.5c0-1.53,0.18-3.02,0.55-4.48c0.37-1.46,0.9-2.84,1.59-4.14c0.69-1.3,1.53-2.49,2.51-3.58
			c0.98-1.09,2.08-2.02,3.3-2.81c1.22-0.79,2.54-1.4,3.96-1.84c1.42-0.44,2.92-0.66,4.5-0.66c2.54,0,4.86,0.39,6.95,1.18
			c2.09,0.79,3.88,1.92,5.36,3.38c1.48,1.46,2.63,3.23,3.44,5.31C188.88,330.8,189.29,333.11,189.29,335.67z M177.61,336.36
			c0-0.75-0.11-1.49-0.33-2.2c-0.22-0.71-0.54-1.34-0.96-1.89c-0.42-0.55-0.94-1-1.56-1.34c-0.62-0.34-1.34-0.51-2.14-0.51
			c-0.82,0-1.56,0.15-2.21,0.45c-0.65,0.3-1.21,0.71-1.67,1.22c-0.46,0.52-0.82,1.12-1.06,1.81c-0.25,0.69-0.37,1.42-0.37,2.2
			c0,0.74,0.11,1.47,0.32,2.21c0.21,0.74,0.53,1.4,0.95,2c0.42,0.6,0.94,1.08,1.56,1.45c0.62,0.37,1.35,0.55,2.17,0.55
			c0.82,0,1.56-0.16,2.22-0.49c0.66-0.32,1.21-0.76,1.67-1.31c0.46-0.55,0.81-1.19,1.05-1.91
			C177.49,337.87,177.61,337.13,177.61,336.36z"/>
		<path class="st2" d="M221.76,328.94c0,1.7-0.26,3.21-0.76,4.52c-0.51,1.32-1.21,2.46-2.09,3.44c-0.89,0.98-1.92,1.81-3.12,2.5
			c-1.19,0.68-2.47,1.24-3.83,1.67c-1.36,0.43-2.77,0.75-4.22,0.95c-1.45,0.2-2.88,0.31-4.29,0.33v12.25h-12.25
			c0-4.01,0.01-8.01,0.03-11.99c0.02-3.98,0.04-7.99,0.08-12.04c0.03-2.14,0.04-4.28,0.03-6.42c-0.02-2.14,0.03-4.29,0.13-6.47
			c2.24-0.67,4.49-1.17,6.73-1.5c2.24-0.33,4.56-0.5,6.94-0.5c1.35,0,2.7,0.11,4.05,0.33c1.35,0.22,2.64,0.57,3.88,1.04
			c1.24,0.47,2.38,1.06,3.44,1.77c1.06,0.71,1.98,1.56,2.75,2.54c0.77,0.98,1.38,2.1,1.83,3.35
			C221.54,325.97,221.76,327.38,221.76,328.94z M210.09,329.84c0-1.14-0.35-2.03-1.04-2.67c-0.69-0.64-1.59-0.96-2.7-0.96
			c-0.37,0-0.75,0.03-1.14,0.09c-0.39,0.06-0.77,0.14-1.12,0.22l-0.32,7.68c0.24,0.04,0.48,0.05,0.71,0.05c0.23,0,0.46,0,0.71,0
			c0.63,0,1.24-0.11,1.83-0.32c0.59-0.21,1.11-0.51,1.56-0.91c0.46-0.39,0.82-0.86,1.09-1.39
			C209.95,331.1,210.09,330.5,210.09,329.84z"/>
		<path class="st2" d="M248.11,316.32c-0.11,1.65-0.2,3.28-0.29,4.89s-0.2,3.24-0.34,4.89l-11.15,0.58l-0.26,3.31h7.84l-0.58,8.15
			l-7.89,0.26l-0.26,3.84h6.52h4.63c-0.11,1.93-0.21,3.84-0.33,5.75c-0.11,1.9-0.21,3.81-0.3,5.72l-22.67,0.53l0.84-37.92H248.11z"
			/>
		<path class="st2" d="M279.82,328.89c0,1.37-0.12,2.61-0.36,3.72c-0.24,1.11-0.61,2.13-1.12,3.06c-0.51,0.93-1.17,1.79-1.97,2.58
			c-0.81,0.79-1.78,1.54-2.92,2.26l6.26,11.15l-11.83,2.31l-4.05-11.2l-3.26,0.11l-0.47,10.94h-11.31c0.09-4,0.17-7.98,0.25-11.94
			c0.08-3.96,0.17-7.94,0.28-11.94c0.04-2.02,0.07-4.01,0.11-6c0.04-1.98,0.11-3.98,0.21-5.99c1.23-0.46,2.44-0.83,3.63-1.13
			c1.19-0.3,2.39-0.53,3.59-0.7c1.2-0.17,2.42-0.28,3.65-0.34c1.24-0.06,2.5-0.09,3.8-0.09c2,0,3.93,0.28,5.8,0.83
			c1.87,0.55,3.52,1.38,4.96,2.48c1.44,1.1,2.59,2.48,3.46,4.13C279.38,324.78,279.82,326.7,279.82,328.89z M268.04,329.73
			c0-0.74-0.1-1.41-0.3-2.02c-0.2-0.61-0.5-1.14-0.89-1.59c-0.39-0.45-0.89-0.8-1.47-1.05c-0.59-0.25-1.28-0.38-2.06-0.38
			c-0.35,0-0.69,0.02-1.02,0.07c-0.33,0.04-0.66,0.11-0.97,0.2l-0.42,9.78h0.63c0.75,0,1.52-0.1,2.3-0.29
			c0.78-0.19,1.48-0.49,2.1-0.89c0.62-0.4,1.13-0.92,1.52-1.55C267.84,331.36,268.04,330.61,268.04,329.73z"/>
		<path class="st2" d="M312.45,328.89c0,1.37-0.12,2.61-0.36,3.72c-0.24,1.11-0.61,2.13-1.12,3.06c-0.51,0.93-1.17,1.79-1.97,2.58
			c-0.81,0.79-1.78,1.54-2.92,2.26l6.26,11.15l-11.83,2.31l-4.05-11.2l-3.26,0.11l-0.47,10.94h-11.31c0.09-4,0.17-7.98,0.25-11.94
			c0.08-3.96,0.17-7.94,0.28-11.94c0.04-2.02,0.07-4.01,0.11-6c0.04-1.98,0.11-3.98,0.21-5.99c1.23-0.46,2.44-0.83,3.63-1.13
			c1.19-0.3,2.39-0.53,3.59-0.7c1.2-0.17,2.42-0.28,3.65-0.34c1.24-0.06,2.5-0.09,3.8-0.09c2,0,3.93,0.28,5.8,0.83
			c1.87,0.55,3.52,1.38,4.96,2.48c1.44,1.1,2.59,2.48,3.46,4.13C312.01,324.78,312.45,326.7,312.45,328.89z M300.67,329.73
			c0-0.74-0.1-1.41-0.3-2.02c-0.2-0.61-0.5-1.14-0.89-1.59c-0.39-0.45-0.89-0.8-1.47-1.05c-0.59-0.25-1.28-0.38-2.06-0.38
			c-0.35,0-0.69,0.02-1.02,0.07c-0.33,0.04-0.66,0.11-0.97,0.2l-0.42,9.78h0.63c0.75,0,1.52-0.1,2.3-0.29
			c0.78-0.19,1.48-0.49,2.1-0.89s1.13-0.92,1.52-1.55C300.47,331.36,300.67,330.61,300.67,329.73z"/>
		<path class="st2" d="M346.42,335.67c0,1.59-0.18,3.13-0.55,4.61c-0.37,1.48-0.9,2.87-1.59,4.17c-0.69,1.3-1.53,2.48-2.52,3.56
			c-0.99,1.08-2.1,2-3.34,2.77c-1.24,0.77-2.58,1.37-4.04,1.8c-1.46,0.43-3,0.64-4.63,0.64c-1.58,0-3.08-0.2-4.51-0.6
			c-1.43-0.4-2.77-0.97-4.01-1.7c-1.25-0.73-2.37-1.6-3.38-2.63c-1.01-1.03-1.87-2.16-2.58-3.42c-0.71-1.25-1.26-2.6-1.66-4.04
			c-0.39-1.44-0.59-2.94-0.59-4.5c0-1.53,0.18-3.02,0.55-4.48c0.37-1.46,0.9-2.84,1.59-4.14c0.69-1.3,1.53-2.49,2.51-3.58
			c0.98-1.09,2.08-2.02,3.3-2.81c1.22-0.79,2.54-1.4,3.96-1.84c1.42-0.44,2.92-0.66,4.5-0.66c2.54,0,4.86,0.39,6.95,1.18
			c2.09,0.79,3.88,1.92,5.36,3.38c1.48,1.46,2.63,3.23,3.44,5.31C346.01,330.8,346.42,333.11,346.42,335.67z M334.75,336.36
			c0-0.75-0.11-1.49-0.33-2.2c-0.22-0.71-0.54-1.34-0.96-1.89s-0.94-1-1.56-1.34c-0.62-0.34-1.34-0.51-2.14-0.51
			c-0.82,0-1.56,0.15-2.21,0.45c-0.65,0.3-1.21,0.71-1.67,1.22s-0.82,1.12-1.06,1.81c-0.25,0.69-0.37,1.42-0.37,2.2
			c0,0.74,0.11,1.47,0.32,2.21c0.21,0.74,0.53,1.4,0.95,2c0.42,0.6,0.94,1.08,1.56,1.45c0.62,0.37,1.35,0.55,2.17,0.55
			c0.82,0,1.56-0.16,2.22-0.49c0.66-0.32,1.21-0.76,1.67-1.31c0.46-0.55,0.81-1.19,1.05-1.91
			C334.62,337.87,334.75,337.13,334.75,336.36z"/>
		<path class="st2" d="M374.92,340.25c0,2.4-0.42,4.5-1.25,6.3c-0.83,1.8-1.97,3.29-3.42,4.48c-1.45,1.19-3.14,2.09-5.07,2.68
			c-1.94,0.6-4.02,0.89-6.25,0.89c-0.86,0-1.8-0.11-2.83-0.34c-1.03-0.23-2.06-0.51-3.12-0.85c-1.05-0.34-2.06-0.71-3.04-1.1
			c-0.97-0.39-1.84-0.77-2.59-1.12l1.16-10.83c1.49,0.89,3.14,1.57,4.96,2.04s3.6,0.7,5.35,0.7c0.33,0,0.74-0.01,1.21-0.04
			c0.47-0.03,0.92-0.11,1.35-0.24c0.43-0.13,0.79-0.33,1.09-0.59c0.3-0.26,0.45-0.64,0.45-1.13c0-0.33-0.11-0.62-0.32-0.85
			c-0.21-0.24-0.48-0.43-0.82-0.58c-0.33-0.15-0.71-0.26-1.13-0.34c-0.42-0.08-0.83-0.14-1.24-0.17c-0.4-0.04-0.78-0.05-1.13-0.05
			c-0.35,0-0.63,0-0.84,0c-1.51,0-2.88-0.26-4.12-0.79s-2.3-1.26-3.18-2.2c-0.89-0.94-1.57-2.05-2.06-3.34
			c-0.49-1.29-0.74-2.69-0.74-4.19c0-2.07,0.42-3.92,1.25-5.56c0.83-1.64,1.95-3.03,3.34-4.18c1.39-1.15,2.99-2.03,4.8-2.64
			c1.81-0.61,3.67-0.92,5.6-0.92c0.86,0,1.74,0.03,2.66,0.09c0.91,0.06,1.82,0.17,2.72,0.33c0.9,0.16,1.78,0.36,2.64,0.6
			c0.86,0.25,1.67,0.55,2.45,0.92l-1,10.68c-1.19-0.4-2.44-0.74-3.75-1.01c-1.31-0.27-2.58-0.41-3.83-0.41c-0.23,0-0.52,0-0.88,0.01
			c-0.36,0.01-0.74,0.04-1.13,0.08s-0.79,0.11-1.2,0.2c-0.4,0.09-0.76,0.21-1.08,0.36c-0.32,0.15-0.57,0.35-0.76,0.59
			c-0.19,0.25-0.28,0.53-0.26,0.87c0.02,0.39,0.16,0.7,0.43,0.93c0.27,0.24,0.62,0.42,1.05,0.55c0.43,0.13,0.9,0.22,1.42,0.28
			c0.52,0.05,1.03,0.08,1.54,0.09c0.51,0.01,0.98,0.01,1.42,0c0.44-0.01,0.8,0,1.08,0.04c1.4,0.09,2.66,0.39,3.79,0.89
			c1.12,0.51,2.07,1.18,2.85,2.02c0.78,0.84,1.38,1.84,1.79,3.01C374.72,337.56,374.92,338.85,374.92,340.25z"/>
	</g>
</g>
<g id="Logo">
	<path class="st3" d="M194.36,298.68c-34.6,0-69.21,0-103.81,0c-8.25,0-12.46-4.22-12.46-12.48c0-56.27,0.02-112.54-0.02-168.81
		c-0.01-8.92,3.89-15.39,11.64-19.56c31.36-16.91,62.74-33.77,94.11-50.67c7.41-3.99,14.69-3.92,22.11,0.11
		c30.97,16.8,61.98,33.54,93,50.26c8.22,4.43,12.17,11.17,12.16,20.5c-0.05,55.97-0.02,111.95-0.02,167.92
		c0,8.38-4.3,12.73-12.6,12.73C263.77,298.68,229.07,298.68,194.36,298.68z M135.4,175.78c-22.02-13.06-22.15-39.45-9.05-53.64
		c13.26-14.36,36.41-14.77,49.86-0.63c6.91,7.26,10.23,15.97,9.53,25.97c-0.85,12.33-7.05,21.5-17.6,27.94
		c6.54,8.38,10.51,17.83,13.63,27.68c7.55,23.83,10.31,48.39,11.13,73.24c0.1,3.1,0.01,6.2,0.01,9.25c2.83,0,5.13,0,7.05,0
		c1.61-9.26,2.78-18.31,4.82-27.16c3.89-16.9,9.1-33.3,22.07-45.94c-0.23-0.17-0.43-0.36-0.67-0.5
		c-12.52-7.23-18.06-17.95-16.32-32.4c0.13-1.1-0.38-2.48-1.02-3.44c-1.85-2.77-4-5.33-5.87-8.08c-1.92-2.81-0.92-4.91,2.39-5.32
		c3.5-0.43,7.02-0.67,10.49-1.26c2.25-0.38,4.74-0.75,6.57-1.96c11.16-7.36,24.08-7.43,35.34,0.03c1.02,0.67,2.25,1.23,3.45,1.4
		c4.94,0.69,9.91,1.2,14.86,1.8c3.36,0.41,4.37,2.5,2.44,5.3c-2,2.9-4.07,5.77-6.31,8.49c-1.35,1.64-1.82,3.25-1.64,5.36
		c0.76,8.72-1.59,16.57-7.58,23.01c-2.69,2.9-6.02,5.2-9.12,7.82c6.58,5.74,10.94,13.34,14.44,21.52
		c6.65,15.55,9.87,31.93,11.65,48.65c0.23,2.12,0.68,3.23,3.1,2.99c2.23-0.22,4.51-0.03,6.76-0.05c5.74-0.05,8.4-2.73,8.4-8.5
		c0.01-53.24-0.01-106.48,0.04-159.72c0-3.96-1.45-6.56-5.01-8.47c-29.75-15.99-59.45-32.07-89.14-48.18
		c-6.31-3.42-12.43-3.38-18.73,0.02c-27.82,15.02-55.65,30.03-83.55,44.91c-7.54,4.02-11.05,9.99-11.03,18.51
		c0.08,50.59,0.04,101.18,0.05,151.77c0,1.27-0.02,2.56,0.2,3.81c0.53,3,2.38,5.3,5.32,5.55c4.71,0.41,9.49,0.11,14.67,0.11
		c0-3.39-0.07-6.51,0.01-9.63c0.56-21.71,2.98-43.19,8.51-64.23C122.92,198.98,127.3,186.54,135.4,175.78z M175.76,285.7
		c0.16-0.4,0.3-0.57,0.3-0.75c-0.03-2.15-0.07-4.3-0.12-6.46c-0.43-20.72-2.6-41.23-7.79-61.34c-2.62-10.16-5.62-20.26-11.87-28.89
		c-4.22-5.83-4.34-5.85-8.76,0.09c-4.91,6.6-7.55,14.34-9.91,22.13c-5.91,19.53-8.43,39.61-9.39,59.91
		c-0.24,5.04-0.04,10.11-0.04,15.3C143.93,285.7,159.78,285.7,175.76,285.7z M263.04,285.71c-0.39-12.92-5.62-35.35-11.24-46.55
		c-2.22-4.42-5.01-8.63-8.07-12.53c-2.39-3.05-4.12-3.02-6.52-0.18c-2.69,3.18-5.23,6.63-7.15,10.32
		c-5.66,10.87-8.51,22.68-10.63,34.67c-0.82,4.67-1.36,9.39-2.05,14.27C232.88,285.71,247.84,285.71,263.04,285.71z M168.83,145.41
		c0.02-9.47-7.66-17.28-17.05-17.34c-9.55-0.06-17.43,7.77-17.4,17.3c0.03,9.38,7.89,17.26,17.22,17.26
		C160.93,162.62,168.81,154.75,168.83,145.41z M225.27,184.7c0.02,8.11,6.66,14.79,14.74,14.84c8.22,0.05,14.99-6.72,14.96-14.93
		c-0.03-8.24-6.76-14.85-15.06-14.79C231.8,169.88,225.24,176.55,225.27,184.7z M263.78,175.61c1.69-2.27,3.1-4.16,4.83-6.48
		c-2.93-0.32-5.22-0.58-7.92-0.88C261.73,170.74,262.66,172.95,263.78,175.61z M220.84,168.29c-2.81,0.3-5.16,0.56-7.97,0.86
		c1.66,2.25,3.03,4.09,4.68,6.33C218.7,172.97,219.68,170.82,220.84,168.29z"/>
	<path class="st3" d="M243.99,187.29c-2.05,2.47-4.9,2.52-7.23,0.12C238.74,185,241.64,184.95,243.99,187.29z"/>
	<g>
		<path class="st3" d="M65.63,315.9l-2.42,38.6l-11.99,0.53l0.11-20.35l-5.42,16.41h-4.63l-4.15-14.67l-0.05,17.04l-12.15,0.37
			l0.53-36.34l13.51-0.53l5.36,17.41l7.15-18.46H65.63z"/>
		<path class="st3" d="M100.26,351.97l-13.04,1.68l-1.58-5.94h-6l-1.31,5.94l-13.41-1.31l10.46-35.02L90,316.58L100.26,351.97z
			 M84.69,339.67l-2-9.15l-1.95,9.15H84.69z"/>
		<path class="st3" d="M127.73,340.25c0,2.4-0.42,4.5-1.25,6.3c-0.83,1.8-1.97,3.29-3.42,4.48s-3.14,2.09-5.07,2.68
			c-1.94,0.6-4.02,0.89-6.24,0.89c-0.86,0-1.8-0.11-2.83-0.34c-1.03-0.23-2.06-0.51-3.12-0.85c-1.05-0.34-2.06-0.71-3.04-1.1
			c-0.97-0.39-1.84-0.77-2.59-1.12l1.16-10.83c1.49,0.89,3.14,1.57,4.96,2.04c1.81,0.46,3.6,0.7,5.35,0.7
			c0.33,0,0.74-0.01,1.21-0.04c0.47-0.03,0.92-0.11,1.35-0.24c0.43-0.13,0.79-0.33,1.09-0.59c0.3-0.26,0.45-0.64,0.45-1.13
			c0-0.33-0.11-0.62-0.32-0.85c-0.21-0.24-0.48-0.43-0.81-0.58c-0.33-0.15-0.71-0.26-1.13-0.34c-0.42-0.08-0.83-0.14-1.24-0.17
			c-0.4-0.04-0.78-0.05-1.13-0.05c-0.35,0-0.63,0-0.84,0c-1.51,0-2.88-0.26-4.11-0.79s-2.3-1.26-3.18-2.2
			c-0.89-0.94-1.57-2.05-2.06-3.34c-0.49-1.29-0.74-2.69-0.74-4.19c0-2.07,0.42-3.92,1.25-5.56c0.83-1.64,1.95-3.03,3.34-4.18
			c1.39-1.15,2.99-2.03,4.8-2.64c1.81-0.61,3.67-0.92,5.6-0.92c0.86,0,1.74,0.03,2.66,0.09c0.91,0.06,1.82,0.17,2.72,0.33
			c0.9,0.16,1.78,0.36,2.64,0.6c0.86,0.25,1.67,0.55,2.45,0.92l-1,10.68c-1.19-0.4-2.44-0.74-3.75-1.01
			c-1.31-0.27-2.58-0.41-3.83-0.41c-0.23,0-0.52,0-0.88,0.01c-0.36,0.01-0.74,0.04-1.13,0.08c-0.39,0.04-0.79,0.11-1.2,0.2
			c-0.4,0.09-0.76,0.21-1.08,0.36c-0.32,0.15-0.57,0.35-0.76,0.59c-0.19,0.25-0.28,0.53-0.26,0.87c0.02,0.39,0.16,0.7,0.43,0.93
			c0.27,0.24,0.62,0.42,1.05,0.55c0.43,0.13,0.9,0.22,1.42,0.28c0.52,0.05,1.03,0.08,1.54,0.09c0.51,0.01,0.98,0.01,1.42,0
			c0.44-0.01,0.8,0,1.08,0.04c1.4,0.09,2.66,0.39,3.79,0.89c1.12,0.51,2.07,1.18,2.85,2.02c0.78,0.84,1.38,1.84,1.79,3.01
			C127.53,337.56,127.73,338.85,127.73,340.25z"/>
		<path class="st3" d="M155.45,317.27l-1.47,11.1c-0.51-0.14-1.02-0.24-1.52-0.29c-0.51-0.05-1.02-0.08-1.53-0.08
			c-1.3,0-2.53,0.17-3.71,0.51c-1.17,0.34-2.21,0.86-3.12,1.56c-0.9,0.7-1.62,1.58-2.16,2.63c-0.53,1.05-0.8,2.29-0.8,3.71
			c0,0.91,0.14,1.7,0.43,2.37c0.29,0.67,0.7,1.22,1.22,1.66c0.53,0.44,1.15,0.76,1.87,0.97c0.72,0.21,1.51,0.32,2.37,0.32
			c0.65,0,1.32-0.07,2.02-0.21c0.7-0.14,1.39-0.32,2.08-0.55c0.68-0.23,1.35-0.49,2-0.79c0.65-0.3,1.24-0.6,1.79-0.92l-1.05,12.36
			c-0.68,0.35-1.42,0.66-2.22,0.93c-0.8,0.27-1.62,0.51-2.46,0.71s-1.68,0.36-2.52,0.46c-0.84,0.11-1.65,0.16-2.42,0.16
			c-2.23,0-4.3-0.41-6.23-1.24c-1.93-0.82-3.6-1.95-5.02-3.39c-1.42-1.44-2.54-3.13-3.35-5.09c-0.82-1.95-1.22-4.06-1.22-6.32
			c0-3,0.43-5.82,1.29-8.48c0.86-2.66,2.12-4.98,3.79-6.98c1.67-2,3.73-3.58,6.19-4.73c2.46-1.16,5.3-1.74,8.51-1.74
			c1.21,0,2.45,0.1,3.72,0.29C153.18,316.38,154.36,316.74,155.45,317.27z"/>
		<path class="st3" d="M189.29,335.67c0,1.59-0.18,3.13-0.55,4.61c-0.37,1.48-0.9,2.87-1.59,4.17c-0.69,1.3-1.53,2.48-2.52,3.56
			c-0.99,1.08-2.1,2-3.34,2.77c-1.24,0.77-2.58,1.37-4.04,1.8c-1.46,0.43-3,0.64-4.63,0.64c-1.58,0-3.08-0.2-4.51-0.6
			c-1.43-0.4-2.77-0.97-4.01-1.7c-1.25-0.73-2.37-1.6-3.38-2.63c-1.01-1.03-1.87-2.16-2.58-3.42c-0.71-1.25-1.26-2.6-1.66-4.04
			c-0.39-1.44-0.59-2.94-0.59-4.5c0-1.53,0.18-3.02,0.55-4.48c0.37-1.46,0.9-2.84,1.59-4.14c0.69-1.3,1.53-2.49,2.51-3.58
			c0.98-1.09,2.08-2.02,3.3-2.81c1.22-0.79,2.54-1.4,3.96-1.84c1.42-0.44,2.92-0.66,4.5-0.66c2.54,0,4.86,0.39,6.95,1.18
			c2.09,0.79,3.88,1.92,5.36,3.38c1.48,1.46,2.63,3.23,3.44,5.31C188.88,330.8,189.29,333.11,189.29,335.67z M177.61,336.36
			c0-0.75-0.11-1.49-0.33-2.2c-0.22-0.71-0.54-1.34-0.96-1.89c-0.42-0.55-0.94-1-1.56-1.34c-0.62-0.34-1.34-0.51-2.14-0.51
			c-0.82,0-1.56,0.15-2.21,0.45c-0.65,0.3-1.21,0.71-1.67,1.22c-0.46,0.52-0.82,1.12-1.06,1.81c-0.25,0.69-0.37,1.42-0.37,2.2
			c0,0.74,0.11,1.47,0.32,2.21c0.21,0.74,0.53,1.4,0.95,2c0.42,0.6,0.94,1.08,1.56,1.45c0.62,0.37,1.35,0.55,2.17,0.55
			c0.82,0,1.56-0.16,2.22-0.49c0.66-0.32,1.21-0.76,1.67-1.31c0.46-0.55,0.81-1.19,1.05-1.91
			C177.49,337.87,177.61,337.13,177.61,336.36z"/>
		<path class="st3" d="M221.76,328.94c0,1.7-0.26,3.21-0.76,4.52c-0.51,1.32-1.21,2.46-2.09,3.44c-0.89,0.98-1.92,1.81-3.12,2.5
			c-1.19,0.68-2.47,1.24-3.83,1.67c-1.36,0.43-2.77,0.75-4.22,0.95c-1.45,0.2-2.88,0.31-4.29,0.33v12.25h-12.25
			c0-4.01,0.01-8.01,0.03-11.99c0.02-3.98,0.04-7.99,0.08-12.04c0.03-2.14,0.04-4.28,0.03-6.42c-0.02-2.14,0.03-4.29,0.13-6.47
			c2.24-0.67,4.49-1.17,6.73-1.5c2.24-0.33,4.56-0.5,6.94-0.5c1.35,0,2.7,0.11,4.05,0.33c1.35,0.22,2.64,0.57,3.88,1.04
			c1.24,0.47,2.38,1.06,3.44,1.77c1.06,0.71,1.98,1.56,2.75,2.54c0.77,0.98,1.38,2.1,1.83,3.35
			C221.54,325.97,221.76,327.38,221.76,328.94z M210.09,329.84c0-1.14-0.35-2.03-1.04-2.67c-0.69-0.64-1.59-0.96-2.7-0.96
			c-0.37,0-0.75,0.03-1.14,0.09c-0.39,0.06-0.77,0.14-1.12,0.22l-0.32,7.68c0.24,0.04,0.48,0.05,0.71,0.05c0.23,0,0.46,0,0.71,0
			c0.63,0,1.24-0.11,1.83-0.32c0.59-0.21,1.11-0.51,1.56-0.91c0.46-0.39,0.82-0.86,1.09-1.39
			C209.95,331.1,210.09,330.5,210.09,329.84z"/>
		<path class="st3" d="M248.11,316.32c-0.11,1.65-0.2,3.28-0.29,4.89s-0.2,3.24-0.34,4.89l-11.15,0.58l-0.26,3.31h7.84l-0.58,8.15
			l-7.89,0.26l-0.26,3.84h6.52h4.63c-0.11,1.93-0.21,3.84-0.33,5.75c-0.11,1.9-0.21,3.81-0.3,5.72l-22.67,0.53l0.84-37.92H248.11z"
			/>
		<path class="st3" d="M279.82,328.89c0,1.37-0.12,2.61-0.36,3.72c-0.24,1.11-0.61,2.13-1.12,3.06c-0.51,0.93-1.17,1.79-1.97,2.58
			c-0.81,0.79-1.78,1.54-2.92,2.26l6.26,11.15l-11.83,2.31l-4.05-11.2l-3.26,0.11l-0.47,10.94h-11.31c0.09-4,0.17-7.98,0.25-11.94
			c0.08-3.96,0.17-7.94,0.28-11.94c0.04-2.02,0.07-4.01,0.11-6c0.04-1.98,0.11-3.98,0.21-5.99c1.23-0.46,2.44-0.83,3.63-1.13
			c1.19-0.3,2.39-0.53,3.59-0.7c1.2-0.17,2.42-0.28,3.65-0.34c1.24-0.06,2.5-0.09,3.8-0.09c2,0,3.93,0.28,5.8,0.83
			c1.87,0.55,3.52,1.38,4.96,2.48c1.44,1.1,2.59,2.48,3.46,4.13C279.38,324.78,279.82,326.7,279.82,328.89z M268.04,329.73
			c0-0.74-0.1-1.41-0.3-2.02c-0.2-0.61-0.5-1.14-0.89-1.59c-0.39-0.45-0.89-0.8-1.47-1.05c-0.59-0.25-1.28-0.38-2.06-0.38
			c-0.35,0-0.69,0.02-1.02,0.07c-0.33,0.04-0.66,0.11-0.97,0.2l-0.42,9.78h0.63c0.75,0,1.52-0.1,2.3-0.29
			c0.78-0.19,1.48-0.49,2.1-0.89c0.62-0.4,1.13-0.92,1.52-1.55C267.84,331.36,268.04,330.61,268.04,329.73z"/>
		<path class="st3" d="M312.45,328.89c0,1.37-0.12,2.61-0.36,3.72c-0.24,1.11-0.61,2.13-1.12,3.06c-0.51,0.93-1.17,1.79-1.97,2.58
			c-0.81,0.79-1.78,1.54-2.92,2.26l6.26,11.15l-11.83,2.31l-4.05-11.2l-3.26,0.11l-0.47,10.94h-11.31c0.09-4,0.17-7.98,0.25-11.94
			c0.08-3.96,0.17-7.94,0.28-11.94c0.04-2.02,0.07-4.01,0.11-6c0.04-1.98,0.11-3.98,0.21-5.99c1.23-0.46,2.44-0.83,3.63-1.13
			c1.19-0.3,2.39-0.53,3.59-0.7c1.2-0.17,2.42-0.28,3.65-0.34c1.24-0.06,2.5-0.09,3.8-0.09c2,0,3.93,0.28,5.8,0.83
			c1.87,0.55,3.52,1.38,4.96,2.48c1.44,1.1,2.59,2.48,3.46,4.13C312.01,324.78,312.45,326.7,312.45,328.89z M300.67,329.73
			c0-0.74-0.1-1.41-0.3-2.02c-0.2-0.61-0.5-1.14-0.89-1.59c-0.39-0.45-0.89-0.8-1.47-1.05c-0.59-0.25-1.28-0.38-2.06-0.38
			c-0.35,0-0.69,0.02-1.02,0.07c-0.33,0.04-0.66,0.11-0.97,0.2l-0.42,9.78h0.63c0.75,0,1.52-0.1,2.3-0.29
			c0.78-0.19,1.48-0.49,2.1-0.89s1.13-0.92,1.52-1.55C300.47,331.36,300.67,330.61,300.67,329.73z"/>
		<path class="st3" d="M346.42,335.67c0,1.59-0.18,3.13-0.55,4.61c-0.37,1.48-0.9,2.87-1.59,4.17c-0.69,1.3-1.53,2.48-2.52,3.56
			c-0.99,1.08-2.1,2-3.34,2.77c-1.24,0.77-2.58,1.37-4.04,1.8c-1.46,0.43-3,0.64-4.63,0.64c-1.58,0-3.08-0.2-4.51-0.6
			c-1.43-0.4-2.77-0.97-4.01-1.7c-1.25-0.73-2.37-1.6-3.38-2.63c-1.01-1.03-1.87-2.16-2.58-3.42c-0.71-1.25-1.26-2.6-1.66-4.04
			c-0.39-1.44-0.59-2.94-0.59-4.5c0-1.53,0.18-3.02,0.55-4.48c0.37-1.46,0.9-2.84,1.59-4.14c0.69-1.3,1.53-2.49,2.51-3.58
			c0.98-1.09,2.08-2.02,3.3-2.81c1.22-0.79,2.54-1.4,3.96-1.84c1.42-0.44,2.92-0.66,4.5-0.66c2.54,0,4.86,0.39,6.95,1.18
			c2.09,0.79,3.88,1.92,5.36,3.38c1.48,1.46,2.63,3.23,3.44,5.31C346.01,330.8,346.42,333.11,346.42,335.67z M334.75,336.36
			c0-0.75-0.11-1.49-0.33-2.2c-0.22-0.71-0.54-1.34-0.96-1.89s-0.94-1-1.56-1.34c-0.62-0.34-1.34-0.51-2.14-0.51
			c-0.82,0-1.56,0.15-2.21,0.45c-0.65,0.3-1.21,0.71-1.67,1.22s-0.82,1.12-1.06,1.81c-0.25,0.69-0.37,1.42-0.37,2.2
			c0,0.74,0.11,1.47,0.32,2.21c0.21,0.74,0.53,1.4,0.95,2c0.42,0.6,0.94,1.08,1.56,1.45c0.62,0.37,1.35,0.55,2.17,0.55
			c0.82,0,1.56-0.16,2.22-0.49c0.66-0.32,1.21-0.76,1.67-1.31c0.46-0.55,0.81-1.19,1.05-1.91
			C334.62,337.87,334.75,337.13,334.75,336.36z"/>
		<path class="st3" d="M374.92,340.25c0,2.4-0.42,4.5-1.25,6.3c-0.83,1.8-1.97,3.29-3.42,4.48c-1.45,1.19-3.14,2.09-5.07,2.68
			c-1.94,0.6-4.02,0.89-6.25,0.89c-0.86,0-1.8-0.11-2.83-0.34c-1.03-0.23-2.06-0.51-3.12-0.85c-1.05-0.34-2.06-0.71-3.04-1.1
			c-0.97-0.39-1.84-0.77-2.59-1.12l1.16-10.83c1.49,0.89,3.14,1.57,4.96,2.04s3.6,0.7,5.35,0.7c0.33,0,0.74-0.01,1.21-0.04
			c0.47-0.03,0.92-0.11,1.35-0.24c0.43-0.13,0.79-0.33,1.09-0.59c0.3-0.26,0.45-0.64,0.45-1.13c0-0.33-0.11-0.62-0.32-0.85
			c-0.21-0.24-0.48-0.43-0.82-0.58c-0.33-0.15-0.71-0.26-1.13-0.34c-0.42-0.08-0.83-0.14-1.24-0.17c-0.4-0.04-0.78-0.05-1.13-0.05
			c-0.35,0-0.63,0-0.84,0c-1.51,0-2.88-0.26-4.12-0.79s-2.3-1.26-3.18-2.2c-0.89-0.94-1.57-2.05-2.06-3.34
			c-0.49-1.29-0.74-2.69-0.74-4.19c0-2.07,0.42-3.92,1.25-5.56c0.83-1.64,1.95-3.03,3.34-4.18c1.39-1.15,2.99-2.03,4.8-2.64
			c1.81-0.61,3.67-0.92,5.6-0.92c0.86,0,1.74,0.03,2.66,0.09c0.91,0.06,1.82,0.17,2.72,0.33c0.9,0.16,1.78,0.36,2.64,0.6
			c0.86,0.25,1.67,0.55,2.45,0.92l-1,10.68c-1.19-0.4-2.44-0.74-3.75-1.01c-1.31-0.27-2.58-0.41-3.83-0.41c-0.23,0-0.52,0-0.88,0.01
			c-0.36,0.01-0.74,0.04-1.13,0.08s-0.79,0.11-1.2,0.2c-0.4,0.09-0.76,0.21-1.08,0.36c-0.32,0.15-0.57,0.35-0.76,0.59
			c-0.19,0.25-0.28,0.53-0.26,0.87c0.02,0.39,0.16,0.7,0.43,0.93c0.27,0.24,0.62,0.42,1.05,0.55c0.43,0.13,0.9,0.22,1.42,0.28
			c0.52,0.05,1.03,0.08,1.54,0.09c0.51,0.01,0.98,0.01,1.42,0c0.44-0.01,0.8,0,1.08,0.04c1.4,0.09,2.66,0.39,3.79,0.89
			c1.12,0.51,2.07,1.18,2.85,2.02c0.78,0.84,1.38,1.84,1.79,3.01C374.72,337.56,374.92,338.85,374.92,340.25z"/>
	</g>
	<path class="st2" d="M194.36,298.68c-34.6,0-69.21,0-103.81,0c-8.25,0-12.46-4.22-12.46-12.48c0-56.27,0.02-112.54-0.02-168.81
		c-0.01-8.92,3.89-15.39,11.64-19.56c31.36-16.91,62.74-33.77,94.11-50.67c7.41-3.99,14.69-3.92,22.11,0.11
		c30.97,16.8,61.98,33.54,93,50.26c8.22,4.43,12.17,11.17,12.16,20.5c-0.05,55.97-0.02,111.95-0.02,167.92
		c0,8.38-4.3,12.73-12.6,12.73C263.77,298.68,229.07,298.68,194.36,298.68z M135.4,175.78c-22.02-13.06-22.15-39.45-9.05-53.64
		c13.26-14.36,36.41-14.77,49.86-0.63c6.91,7.26,10.23,15.97,9.53,25.97c-0.85,12.33-7.05,21.5-17.6,27.94
		c6.54,8.38,10.51,17.83,13.63,27.68c7.55,23.83,10.31,48.39,11.13,73.24c0.1,3.1,0.01,6.2,0.01,9.25c2.83,0,5.13,0,7.05,0
		c1.61-9.26,2.78-18.31,4.82-27.16c3.89-16.9,9.1-33.3,22.07-45.94c-0.23-0.17-0.43-0.36-0.67-0.5
		c-12.52-7.23-18.06-17.95-16.32-32.4c0.13-1.1-0.38-2.48-1.02-3.44c-1.85-2.77-4-5.33-5.87-8.08c-1.92-2.81-0.92-4.91,2.39-5.32
		c3.5-0.43,7.02-0.67,10.49-1.26c2.25-0.38,4.74-0.75,6.57-1.96c11.16-7.36,24.08-7.43,35.34,0.03c1.02,0.67,2.25,1.23,3.45,1.4
		c4.94,0.69,9.91,1.2,14.86,1.8c3.36,0.41,4.37,2.5,2.44,5.3c-2,2.9-4.07,5.77-6.31,8.49c-1.35,1.64-1.82,3.25-1.64,5.36
		c0.76,8.72-1.59,16.57-7.58,23.01c-2.69,2.9-6.02,5.2-9.12,7.82c6.58,5.74,10.94,13.34,14.44,21.52
		c6.65,15.55,9.87,31.93,11.65,48.65c0.23,2.12,0.68,3.23,3.1,2.99c2.23-0.22,4.51-0.03,6.76-0.05c5.74-0.05,8.4-2.73,8.4-8.5
		c0.01-53.24-0.01-106.48,0.04-159.72c0-3.96-1.45-6.56-5.01-8.47c-29.75-15.99-59.45-32.07-89.14-48.18
		c-6.31-3.42-12.43-3.38-18.73,0.02c-27.82,15.02-55.65,30.03-83.55,44.91c-7.54,4.02-11.05,9.99-11.03,18.51
		c0.08,50.59,0.04,101.18,0.05,151.77c0,1.27-0.02,2.56,0.2,3.81c0.53,3,2.38,5.3,5.32,5.55c4.71,0.41,9.49,0.11,14.67,0.11
		c0-3.39-0.07-6.51,0.01-9.63c0.56-21.71,2.98-43.19,8.51-64.23C122.92,198.98,127.3,186.54,135.4,175.78z M175.76,285.7
		c0.16-0.4,0.3-0.57,0.3-0.75c-0.03-2.15-0.07-4.3-0.12-6.46c-0.43-20.72-2.6-41.23-7.79-61.34c-2.62-10.16-5.62-20.26-11.87-28.89
		c-4.22-5.83-4.34-5.85-8.76,0.09c-4.91,6.6-7.55,14.34-9.91,22.13c-5.91,19.53-8.43,39.61-9.39,59.91
		c-0.24,5.04-0.04,10.11-0.04,15.3C143.93,285.7,159.78,285.7,175.76,285.7z M263.04,285.71c-0.39-12.92-5.62-35.35-11.24-46.55
		c-2.22-4.42-5.01-8.63-8.07-12.53c-2.39-3.05-4.12-3.02-6.52-0.18c-2.69,3.18-5.23,6.63-7.15,10.32
		c-5.66,10.87-8.51,22.68-10.63,34.67c-0.82,4.67-1.36,9.39-2.05,14.27C232.88,285.71,247.84,285.71,263.04,285.71z M168.83,145.41
		c0.02-9.47-7.66-17.28-17.05-17.34c-9.55-0.06-17.43,7.77-17.4,17.3c0.03,9.38,7.89,17.26,17.22,17.26
		C160.93,162.62,168.81,154.75,168.83,145.41z M225.27,184.7c0.02,8.11,6.66,14.79,14.74,14.84c8.22,0.05,14.99-6.72,14.96-14.93
		c-0.03-8.24-6.76-14.85-15.06-14.79C231.8,169.88,225.24,176.55,225.27,184.7z M263.78,175.61c1.69-2.27,3.1-4.16,4.83-6.48
		c-2.93-0.32-5.22-0.58-7.92-0.88C261.73,170.74,262.66,172.95,263.78,175.61z M220.84,168.29c-2.81,0.3-5.16,0.56-7.97,0.86
		c1.66,2.25,3.03,4.09,4.68,6.33C218.7,172.97,219.68,170.82,220.84,168.29z"/>
	<path class="st2" d="M243.99,187.29c-2.05,2.47-4.9,2.52-7.23,0.12C238.74,185,241.64,184.95,243.99,187.29z"/>
</g>
</svg>
